<svg width="285" height="48" viewBox="0 0 285 48" fill="none" xmlns="http://www.w3.org/2000/svg">
<path d="M42.1068 9.72766C43.2413 11.2025 44.1489 12.7909 44.8296 14.4927L23.7275 30.6029L14.8782 24.9303V18.0097L23.7275 23.6823L42.1068 9.72766Z" fill="white"/>
<path d="M136.81 14.7388L143.209 10.0201H121.846V38.2677H143.209V33.5813H127.954V26.3417H140.947V21.623H127.954V14.7388H136.81Z" fill="white"/>
<path d="M105.718 21.0412H98.3169V14.7388H110.146L116.513 10.0201H92.2085V38.2677H104.942C112.085 38.2677 116.19 35.0357 116.19 29.3797C116.157 24.0146 112.473 21.0412 105.718 21.0412ZM104.652 33.5813H98.2846V25.7599H104.652C108.53 25.7599 110.308 27.085 110.308 29.6706C110.34 32.3208 108.433 33.5813 104.652 33.5813Z" fill="white"/>
<path d="M160.5 10.0201H148.865V38.2677H154.974V30.2523H160.5C167.934 30.2523 172.523 26.3416 172.523 20.1039C172.523 13.8985 167.934 10.0201 160.5 10.0201ZM160.371 25.566H154.974V14.7388H160.371C164.282 14.7388 166.415 16.678 166.415 20.1686C166.415 23.6591 164.282 25.566 160.371 25.566Z" fill="white"/>
<path d="M81.7369 32.1594C80.1209 33.032 78.311 33.4845 76.4688 33.4845C70.9744 33.4845 66.9991 29.5738 66.9991 24.144C66.9991 18.7466 70.9744 14.8036 76.4688 14.8036C78.4403 14.7713 80.4118 15.3854 82.0278 16.5489L86.391 13.3169L86.1001 13.0583C83.5468 10.8283 80.1209 9.63245 76.2425 9.63245C72.0087 9.63245 68.1626 11.0545 65.4477 13.6401C62.7005 16.258 61.1815 19.9101 61.1815 23.9501C61.1815 28.0224 62.7005 31.7392 65.4477 34.4218C68.1949 37.1043 72.041 38.591 76.2425 38.591C80.638 38.591 84.4841 37.072 87.0697 34.2602L83.1267 31.3514L81.7369 32.1594Z" fill="white"/>
<path d="M42.2096 9.76172C43.3084 11.1838 44.278 12.7675 45.0214 14.4481L23.561 30.2848L14.5761 24.6612V17.874L23.561 23.4976L42.2096 9.76172Z" fill="white"/>
<path d="M5.46189 24.1441C5.46189 23.8532 5.46189 23.53 5.49421 23.2392L0.0644775 22.9806C0.0321576 23.3684 0.0321655 23.7563 0.0321655 24.1441C0.0321655 30.6404 2.68239 36.5549 6.94861 40.8211L10.7947 36.9751C7.46572 33.6784 5.46189 29.1537 5.46189 24.1441Z" fill="white"/>
<path d="M23.5609 6.04545C23.8518 6.04545 24.175 6.04545 24.4659 6.07777L24.7245 0.648044C24.3366 0.615725 23.9488 0.615723 23.5609 0.615723C17.0647 0.615723 11.1501 3.26595 6.88391 7.53216L10.73 11.3782C14.0266 8.04928 18.5837 6.04545 23.5609 6.04545Z" fill="white"/>
<path d="M23.561 42.2763C23.2701 42.2763 22.9469 42.2763 22.656 42.2439L22.3975 47.6737C22.7853 47.706 23.1731 47.706 23.561 47.706C30.0573 47.706 35.9718 45.0558 40.238 40.7895L36.3919 36.9435C33.0953 40.2401 28.5705 42.2763 23.561 42.2763Z" fill="white"/>
<path d="M33.7742 9.18018L38.3636 5.7866C34.3236 2.52229 29.1847 0.550781 23.5611 0.550781V5.98052C27.3425 6.04516 30.8654 7.20867 33.7742 9.18018Z" fill="white"/>
<path d="M47.1223 24.1437C47.1223 22.6893 46.993 21.2995 46.7345 19.9098L41.6603 23.6589C41.6603 23.8205 41.6603 23.9821 41.6603 24.1437C41.6603 29.4765 39.3656 34.2598 35.6811 37.5887L39.3332 41.6287C44.1489 37.3302 47.1223 31.0925 47.1223 24.1437Z" fill="white"/>
<path d="M23.5611 42.2759C18.2283 42.2759 13.445 39.9812 10.116 36.2968L6.07605 39.9489C10.3746 44.6999 16.6123 47.7056 23.5611 47.7056V42.2759Z" fill="white"/>
<path d="M11.4089 10.7319L7.75676 6.69189C3.00574 10.9904 0 17.2282 0 24.1769H5.42973C5.46205 18.8441 7.75675 14.0285 11.4089 10.7319Z" fill="white"/>
<path d="M193.309 38.7883H186.678V9.78072H193.309V21.3009H197.121L204.663 9.78072H212.537L202.84 23.3729L214.484 38.7883H206.114L197.494 26.9781H193.309V38.7883Z" fill="white"/>
<path d="M224.793 38.7883H218.163V9.78072H224.793V38.7883Z" fill="white"/>
<path d="M241.46 9.78072C244.388 9.78072 246.916 10.0984 249.043 10.7338C251.198 11.3416 252.966 12.2395 254.347 13.4274C255.756 14.5877 256.792 16.0381 257.455 17.7785C258.118 19.4914 258.45 21.4666 258.45 23.7044C258.45 26.2736 258.049 28.5113 257.248 30.4176C256.447 32.2961 255.314 33.857 253.85 35.1002C252.414 36.3434 250.673 37.2689 248.629 37.8767C246.584 38.4844 244.319 38.7883 241.833 38.7883H231.639V9.78072H241.46ZM242.04 32.5724C245.327 32.5724 247.731 31.8127 249.25 30.2932C250.77 28.7738 251.53 26.7433 251.53 24.2016C251.53 22.848 251.35 21.66 250.991 20.6379C250.659 19.6157 250.107 18.7593 249.333 18.0686C248.587 17.3779 247.607 16.8669 246.391 16.5353C245.176 16.1762 243.698 15.9966 241.957 15.9966H238.269V32.5724H242.04Z" fill="white"/>
<path d="M283.55 20.1406C283.08 19.5328 282.527 18.9526 281.892 18.4001C281.257 17.8476 280.525 17.3503 279.696 16.9083C278.895 16.4663 278.024 16.121 277.085 15.8723C276.146 15.6237 275.137 15.4994 274.06 15.4994C272.099 15.4994 270.731 15.7204 269.957 16.1624C269.184 16.5768 268.797 17.1569 268.797 17.9029C268.797 18.5106 269.032 18.9941 269.502 19.3532C269.971 19.7124 270.579 20.0024 271.325 20.2235C272.099 20.4445 272.969 20.6379 273.936 20.8036C274.903 20.9694 275.883 21.1766 276.878 21.4252C277.9 21.6462 278.895 21.9501 279.862 22.3369C280.828 22.7236 281.685 23.2485 282.431 23.9116C283.204 24.5746 283.826 25.4034 284.296 26.3979C284.765 27.3925 285 28.6218 285 30.086C285 31.274 284.779 32.4205 284.337 33.5255C283.923 34.6306 283.232 35.6113 282.265 36.4677C281.298 37.3241 280.027 38.0148 278.453 38.5397C276.905 39.037 275.013 39.2856 272.775 39.2856C271.56 39.2856 270.399 39.1889 269.294 38.9955C268.217 38.8021 267.222 38.5397 266.311 38.2082C265.427 37.8767 264.639 37.5037 263.949 37.0893C263.286 36.6749 262.761 36.2467 262.374 35.8047V28.4285C263.313 29.8374 264.667 30.9701 266.435 31.8265C268.203 32.6553 270.289 33.0697 272.692 33.0697C274.792 33.0697 276.256 32.821 277.085 32.3238C277.914 31.7989 278.328 31.1358 278.328 30.3347C278.328 29.6716 278.093 29.1606 277.624 28.8014C277.154 28.4147 276.546 28.1108 275.8 27.8898C275.055 27.6687 274.198 27.4892 273.231 27.351C272.264 27.2129 271.27 27.0333 270.248 26.8123C269.225 26.5913 268.231 26.3012 267.264 25.9421C266.297 25.583 265.441 25.0719 264.695 24.4088C263.949 23.7458 263.341 22.9032 262.871 21.881C262.402 20.8312 262.167 19.519 262.167 17.9443C262.167 15.2369 263.134 13.1235 265.068 11.6041C267.029 10.057 270.027 9.28345 274.06 9.28345C276.215 9.28345 278.08 9.51827 279.654 9.98792C281.257 10.4576 282.555 10.9825 283.55 11.5626V20.1406Z" fill="white"/>
</svg>
