<svg width="230" height="32" viewBox="0 0 230 32" fill="none" xmlns="http://www.w3.org/2000/svg">
<path d="M125.005 22.8359C125.299 22.8359 125.666 22.7623 125.961 22.6153C126.255 22.4682 126.475 22.1741 126.696 21.733L118.755 7.1748H122.505L128.313 17.9831L133.093 7.1748H136.475L129.784 21.88C129.49 22.6153 129.122 23.277 128.681 23.8652C128.387 24.3064 128.019 24.7475 127.578 25.1152C127.21 25.4093 126.843 25.6299 126.402 25.7769C125.961 25.924 125.519 25.9975 125.078 25.9975C124.711 25.9975 124.269 25.924 123.902 25.8504C123.608 25.7769 123.314 25.7034 122.946 25.5563V22.1006C123.167 22.3212 123.534 22.5418 123.828 22.6153C124.269 22.7623 124.637 22.8359 125.005 22.8359Z" fill="#0FA3B0"/>
<path d="M154.195 23.7183C153.9 24.0124 153.606 24.3065 153.239 24.527C152.798 24.8211 152.283 25.0417 151.768 25.2623C151.18 25.4829 150.518 25.7035 149.93 25.777C149.195 25.924 148.46 25.9976 147.724 25.9976C146.327 25.9976 145.004 25.777 143.68 25.3358C142.504 24.8947 141.475 24.3065 140.592 23.4242C139.71 22.6154 139.048 21.586 138.607 20.4096C138.166 19.2332 137.872 17.9097 137.872 16.3656C137.872 15.0422 138.092 13.7187 138.607 12.5423C139.048 11.3659 139.71 10.3365 140.592 9.52772C141.475 8.6454 142.577 7.98367 143.754 7.54251C145.077 7.02783 146.474 6.80725 147.871 6.80725C149.342 6.80725 150.518 6.9543 151.548 7.32193C152.577 7.68956 153.386 8.05719 153.9 8.42483V13.057C153.606 12.6158 153.239 12.2482 152.871 11.8806C152.43 11.5129 151.989 11.1453 151.474 10.8512C150.959 10.5571 150.371 10.263 149.783 10.1159C149.121 9.89535 148.533 9.82182 147.871 9.82182C146.989 9.82182 146.033 9.96887 145.224 10.3365C144.489 10.6306 143.754 11.0718 143.166 11.66C142.577 12.2482 142.136 12.9099 141.916 13.7187C141.622 14.601 141.475 15.4833 141.475 16.3656C141.475 17.248 141.622 18.0567 141.842 18.8655C142.357 20.4096 143.533 21.7331 145.004 22.3213C145.886 22.6889 146.842 22.8359 147.724 22.8359C148.46 22.8359 149.195 22.7624 149.93 22.5418C150.592 22.3948 151.18 22.1742 151.768 21.8066C152.283 21.5125 152.798 21.1448 153.239 20.7772C153.606 20.4096 153.974 19.9684 154.268 19.4537L154.195 23.7183Z" fill="#0FA3B0"/>
<path d="M170.076 10.1895H163.165L163.091 11.0718C162.944 13.3511 162.797 15.2628 162.577 16.8803C162.43 18.2773 162.135 19.6008 161.841 20.9243C161.547 22.0272 161.253 22.9095 160.959 23.5712C160.665 24.1594 160.297 24.6741 159.856 25.1153C159.489 25.4094 159.121 25.7035 158.68 25.777C158.239 25.8505 157.797 25.924 157.43 25.924C156.842 25.924 156.327 25.8505 155.959 25.6299V22.3213C156.106 22.3948 156.253 22.3948 156.327 22.3948C156.474 22.3948 156.547 22.3948 156.695 22.3948C156.915 22.3948 157.136 22.3213 157.356 22.3213C157.577 22.2477 157.871 22.0272 158.018 21.8066C158.312 21.4389 158.459 21.0713 158.606 20.6302C158.827 19.9684 159.047 19.3067 159.121 18.5714C159.268 17.6891 159.415 16.6598 159.562 15.4098C159.709 14.1599 159.783 12.6158 159.93 10.8512L160.077 7.02783H173.238V25.6299H170.003V10.1895H170.076Z" fill="#0FA3B0"/>
<path d="M182.87 22.8359C183.164 22.8359 183.532 22.7623 183.826 22.6153C184.12 22.4682 184.34 22.1741 184.561 21.733L176.547 7.1748H180.296L186.105 17.9831L190.884 7.1748H194.266L187.575 21.88C187.281 22.6153 186.914 23.277 186.473 23.8652C186.178 24.3064 185.811 24.7475 185.37 25.1152C185.002 25.4093 184.634 25.6299 184.193 25.7769C183.752 25.924 183.311 25.9975 182.87 25.9975C182.502 25.9975 182.061 25.924 181.693 25.8504C181.399 25.7769 181.105 25.7034 180.738 25.5563V22.1006C180.958 22.3212 181.326 22.5418 181.62 22.6153C182.135 22.7623 182.502 22.8359 182.87 22.8359Z" fill="#0FA3B0"/>
<path d="M209.927 10.1894H200.81V25.7769H197.575V7.1748H209.927V10.1894Z" fill="#0FA3B0"/>
<path d="M216.545 21.0712L226.471 7.1748H230V25.7769H226.765V11.6599L216.765 25.7769H213.31V7.1748H216.545V21.0712Z" fill="#0FA3B0"/>
<path d="M27.2886 6.88171C28.0238 7.83755 28.612 8.86692 29.0532 9.96981L15.3773 20.4105L9.6423 16.7342V12.2491L15.3773 15.9254L27.2886 6.88171Z" fill="#21A038"/>
<path d="M88.664 10.1304L92.8112 7.07227H78.966V25.3789H92.8112V22.3418H82.9248V17.6499H91.345V14.5918H82.9248V10.1304H88.664Z" fill="#21A038"/>
<path d="M68.5139 14.2148H63.7173V10.1304H71.3835L75.5098 7.07227H59.7585V25.3789H68.0112C72.6402 25.3789 75.3003 23.2843 75.3003 19.6188C75.2794 16.1418 72.8916 14.2148 68.5139 14.2148ZM67.8227 22.3418H63.6964V17.2729H67.8227C70.3362 17.2729 71.4882 18.1317 71.4882 19.8073C71.5092 21.5249 70.2734 22.3418 67.8227 22.3418Z" fill="#21A038"/>
<path d="M104.017 7.07227H96.4767V25.3789H100.435V20.1844H104.017C108.835 20.1844 111.809 17.6499 111.809 13.6074C111.809 9.58576 108.835 7.07227 104.017 7.07227ZM103.933 17.1472H100.435V10.1304H103.933C106.468 10.1304 107.85 11.3871 107.85 13.6493C107.85 15.9114 106.468 17.1472 103.933 17.1472Z" fill="#21A038"/>
<path d="M52.9721 21.4202C51.9248 21.9857 50.7519 22.2789 49.558 22.2789C45.9972 22.2789 43.4208 19.7445 43.4208 16.2256C43.4208 12.7276 45.9972 10.1723 49.558 10.1723C50.8356 10.1513 52.1133 10.5493 53.1606 11.3033L55.9883 9.20875L55.7998 9.04118C54.1451 7.59592 51.9248 6.82092 49.4113 6.82092C46.6674 6.82092 44.1749 7.74254 42.4154 9.41821C40.635 11.1148 39.6506 13.4817 39.6506 16.0999C39.6506 18.7391 40.635 21.1479 42.4154 22.8864C44.1958 24.6249 46.6884 25.5884 49.4113 25.5884C52.26 25.5884 54.7525 24.6039 56.4282 22.7817L53.8728 20.8965L52.9721 21.4202Z" fill="#21A038"/>
<path d="M27.3552 6.90491C28.0673 7.82652 28.6957 8.85287 29.1775 9.94205L15.2694 20.2055L9.44647 16.5609V12.1623L15.2694 15.8069L27.3552 6.90491Z" fill="#21A038"/>
<path d="M3.5398 16.2256C3.5398 16.0371 3.5398 15.8276 3.56075 15.6391L0.0418453 15.4716C0.0208994 15.7229 0.0209045 15.9743 0.0209045 16.2256C0.0209045 20.4357 1.73846 24.2688 4.50331 27.0337L6.99586 24.5411C4.83844 22.4046 3.5398 19.4722 3.5398 16.2256Z" fill="url(#paint0_linear)"/>
<path d="M15.2695 4.49595C15.458 4.49595 15.6674 4.49595 15.856 4.5169L16.0235 0.997998C15.7722 0.977052 15.5208 0.977051 15.2695 0.977051C11.0594 0.977051 7.22628 2.69461 4.46143 5.45946L6.95398 7.95201C9.09045 5.79459 12.0438 4.49595 15.2695 4.49595Z" fill="url(#paint1_linear)"/>
<path d="M15.2695 27.9766C15.081 27.9766 14.8715 27.9766 14.683 27.9556L14.5154 31.4745C14.7668 31.4955 15.0181 31.4955 15.2695 31.4955C19.4796 31.4955 23.3127 29.7779 26.0775 27.0131L23.585 24.5205C21.4485 26.657 18.5161 27.9766 15.2695 27.9766Z" fill="url(#paint2_linear)"/>
<path d="M21.8884 6.5276L24.8627 4.32829C22.2445 2.21276 18.9141 0.935059 15.2695 0.935059V4.45396C17.7202 4.49585 20.0033 5.2499 21.8884 6.5276Z" fill="url(#paint3_linear)"/>
<path d="M30.5391 16.2251C30.5391 15.2825 30.4553 14.3819 30.2878 13.4812L26.9993 15.9109C26.9993 16.0156 26.9993 16.1204 26.9993 16.2251C26.9993 19.6812 25.5121 22.7812 23.1243 24.9386L25.4912 27.5568C28.6121 24.771 30.5391 20.7285 30.5391 16.2251Z" fill="#21A038"/>
<path d="M15.2695 27.9764C11.8134 27.9764 8.71346 26.4893 6.55603 24.1014L3.93781 26.4683C6.7236 29.5474 10.7661 31.4953 15.2695 31.4953V27.9764Z" fill="url(#paint4_linear)"/>
<path d="M7.39391 7.53315L5.02703 4.91492C1.94799 7.70071 3.05176e-05 11.7433 3.05176e-05 16.2466H3.51893C3.53987 12.7906 5.02703 9.66962 7.39391 7.53315Z" fill="url(#paint5_linear)"/>
<defs>
<linearGradient id="paint0_linear" x1="5.19048" y1="26.5891" x2="1.33565" y2="15.4464" gradientUnits="userSpaceOnUse">
<stop offset="0.1444" stop-color="#F2E913"/>
<stop offset="0.3037" stop-color="#E7E518"/>
<stop offset="0.5823" stop-color="#CADB26"/>
<stop offset="0.891" stop-color="#A3CD39"/>
</linearGradient>
<linearGradient id="paint1_linear" x1="5.48339" y1="6.05719" x2="15.4118" y2="2.27366" gradientUnits="userSpaceOnUse">
<stop offset="0.0592" stop-color="#0FA8E0"/>
<stop offset="0.5385" stop-color="#0099F9"/>
<stop offset="0.9234" stop-color="#0291EB"/>
</linearGradient>
<linearGradient id="paint2_linear" x1="14.279" y1="29.3755" x2="25.5064" y2="26.838" gradientUnits="userSpaceOnUse">
<stop offset="0.1226" stop-color="#A3CD39"/>
<stop offset="0.2846" stop-color="#86C339"/>
<stop offset="0.8693" stop-color="#21A038"/>
</linearGradient>
<linearGradient id="paint3_linear" x1="14.5366" y1="2.1425" x2="24.1357" y2="5.10424" gradientUnits="userSpaceOnUse">
<stop offset="0.0566" stop-color="#0291EB"/>
<stop offset="0.79" stop-color="#0C8ACB"/>
</linearGradient>
<linearGradient id="paint4_linear" x1="4.83496" y1="26.049" x2="15.2837" y2="29.953" gradientUnits="userSpaceOnUse">
<stop offset="0.1324" stop-color="#F2E913"/>
<stop offset="0.2977" stop-color="#EBE716"/>
<stop offset="0.5306" stop-color="#D9E01F"/>
<stop offset="0.8023" stop-color="#BBD62D"/>
<stop offset="0.9829" stop-color="#A3CD39"/>
</linearGradient>
<linearGradient id="paint5_linear" x1="1.31725" y1="16.6597" x2="5.51145" y2="5.74909" gradientUnits="userSpaceOnUse">
<stop offset="0.0698" stop-color="#A3CD39"/>
<stop offset="0.2599" stop-color="#81C55F"/>
<stop offset="0.9216" stop-color="#0FA8E0"/>
</linearGradient>
</defs>
</svg>
