<svg width="73" height="21" viewBox="0 0 73 21" fill="none" xmlns="http://www.w3.org/2000/svg">
<path d="M57.6052 6.8631L60.3334 4.86682H51.2017V16.8557H60.3334V14.8594H53.8077V11.7905H59.3738V9.79422H53.8077V6.8631H57.6052Z" fill="white"/>
<path fill-rule="evenodd" clip-rule="evenodd" d="M41.2354 9.5404H44.3139C47.1101 9.5404 48.6497 10.8009 48.6497 13.0893C48.6497 15.4831 46.9502 16.8557 43.9877 16.8557H38.7056V4.86682H48.7986L46.1501 6.8631H41.2354V9.5404ZM41.2354 14.8594H43.8736C45.4351 14.8594 46.2268 14.3274 46.2275 13.1974C46.2275 12.0918 45.4796 11.5361 43.8736 11.5361H41.2354V14.8594Z" fill="white"/>
<path fill-rule="evenodd" clip-rule="evenodd" d="M62.2559 4.86682H67.2166C70.3828 4.86682 72.3489 6.51105 72.3489 9.15736C72.3489 11.8037 70.3821 13.4598 67.2166 13.4598H64.8562V16.8557H62.2559V4.86682ZM64.8562 11.4636H67.1609C68.8275 11.4636 69.7446 10.6468 69.7446 9.16343C69.7446 7.68007 68.8268 6.86323 67.1609 6.86323H64.8562V11.4636Z" fill="white"/>
<path d="M34.5209 14.065C33.8534 14.4358 33.0757 14.6322 32.2735 14.6322C29.9258 14.6322 28.2224 12.9453 28.2224 10.6211C28.2224 8.29682 29.9264 6.60992 32.2735 6.60992C33.1613 6.60992 33.9576 6.86112 34.6417 7.35616L36.509 5.97056L36.3856 5.86166C35.2953 4.89695 33.8381 4.38721 32.1726 4.38721C30.3657 4.38721 28.7254 5.00051 27.5549 6.11487C26.3771 7.23524 25.7288 8.81192 25.7288 10.5543C25.7288 12.3046 26.3751 13.9047 27.5482 15.0592C28.7254 16.2176 30.3617 16.8556 32.156 16.8556C34.0332 16.8556 35.6722 16.1969 36.783 14.9977C35.9257 14.3617 35.0982 13.7477 35.0982 13.7477L34.5209 14.065Z" fill="white"/>
<path fill-rule="evenodd" clip-rule="evenodd" d="M19.8035 8.62054C19.9072 9.19174 19.9613 9.78052 19.9613 10.3816C19.9613 15.8114 15.5504 20.2125 10.1086 20.2125C4.66679 20.2125 0.255859 15.8114 0.255859 10.3816C0.255859 4.95193 4.66679 0.550781 10.1086 0.550781C12.4526 0.550781 14.6049 1.36856 16.2963 2.73217L14.38 4.14132C13.1633 3.30923 11.6917 2.82195 10.1086 2.82195C5.93106 2.82195 2.53207 6.2134 2.53207 10.3816C2.53207 14.5499 5.93106 17.9414 10.1086 17.9414C14.2861 17.9414 17.6851 14.5499 17.6851 10.3816C17.6851 10.314 17.6844 10.247 17.6825 10.18L19.8035 8.62054ZM6.35818 7.75914L10.1086 10.1051L17.9055 4.37159C18.371 4.97207 18.7688 5.6272 19.0863 6.32592L10.1086 12.9273L6.35818 10.5813V7.75914Z" fill="white"/>
</svg>
