<svg width="68" height="26" viewBox="0 0 68 26" fill="none" xmlns="http://www.w3.org/2000/svg">
<mask id="mask0" style="mask-type:alpha" maskUnits="userSpaceOnUse" x="0" y="5" width="19" height="20">
<path fill-rule="evenodd" clip-rule="evenodd" d="M0 5.69104H18.8096V24.5383H0V5.69104Z" fill="white"/>
</mask>
<g mask="url(#mask0)">
<path fill-rule="evenodd" clip-rule="evenodd" d="M9.40477 20.3808C6.52799 20.3808 4.20444 18.0527 4.20444 15.1701C4.20444 12.2876 6.52799 9.95943 9.40477 9.95943C12.2816 9.95943 14.6051 12.2876 14.6051 15.1701C14.6604 17.9972 12.2816 20.3808 9.40477 20.3808ZM9.40474 5.69104C4.2044 5.69104 -0.00012207 9.90396 -0.00012207 15.1147C-0.00012207 20.3254 4.2044 24.5383 9.40474 24.5383C14.6051 24.5383 18.8096 20.3254 18.8096 15.1147C18.8096 9.90396 14.6051 5.69104 9.40474 5.69104Z" fill="white"/>
</g>
<mask id="mask1" style="mask-type:alpha" maskUnits="userSpaceOnUse" x="1" y="0" width="17" height="5">
<path fill-rule="evenodd" clip-rule="evenodd" d="M1.67908 0.59375H17.0197V4.43835H1.67908V0.59375Z" fill="white"/>
</mask>
<g mask="url(#mask1)">
<path fill-rule="evenodd" clip-rule="evenodd" d="M3.81581 4.43842C2.66526 4.43842 1.67908 3.57336 1.67908 2.51607C1.67908 1.45878 2.61047 0.593721 3.81581 0.593721C5.02114 0.593721 5.95253 1.45878 5.95253 2.51607C5.95253 3.57336 4.96635 4.43842 3.81581 4.43842ZM17.0197 2.51598C17.0197 3.57327 16.0883 4.43832 14.883 4.43832C13.7324 4.43832 12.7462 3.57327 12.7462 2.51598C12.7462 1.45868 13.6776 0.593628 14.883 0.593628C16.0883 0.593628 17.0197 1.45868 17.0197 2.51598ZM11.4861 2.51598C11.4861 3.57327 10.5547 4.43832 9.34941 4.43832C8.19886 4.43832 7.21268 3.57327 7.21268 2.51598C7.21268 1.45868 8.14408 0.593628 9.34941 0.593628C10.5 0.593628 11.4861 1.45868 11.4861 2.51598Z" fill="white"/>
</g>
<path fill-rule="evenodd" clip-rule="evenodd" d="M58.3429 20.8281C55.3899 20.8281 53.0054 18.4202 53.0054 15.4391C53.0054 12.4579 55.3899 10.05 58.3429 10.05C61.2958 10.05 63.6809 12.4579 63.6809 15.4391C63.7377 18.3629 61.2958 20.8281 58.3429 20.8281ZM58.343 5.63562C53.0055 5.63562 48.6891 9.99271 48.6891 15.3817C48.6891 20.7708 53.0055 25.1279 58.343 25.1279C63.681 25.1279 67.9968 20.7708 67.9968 15.3817C67.9968 9.99271 63.681 5.63562 58.343 5.63562Z" fill="white"/>
<path fill-rule="evenodd" clip-rule="evenodd" d="M27.5412 16.081L34.4182 24.2805H29.2992L25.2144 19.6649L24.1803 21.2939V24.2805H20.1472V19.9907V13.746V7.44705V0.550781H24.1803V12.117V13.8003L24.7491 12.8229L29.4026 5.81801H34.0045L27.5412 16.081Z" fill="white"/>
<path fill-rule="evenodd" clip-rule="evenodd" d="M43.4909 16.081L50.3681 24.2805H45.2489L41.1642 19.6649L40.1301 21.2939V24.2805H36.0972V19.9907V13.746V7.44705V0.550781H40.1301V12.117V13.8003L40.6994 12.8229L45.3528 5.81801H49.954L43.4909 16.081Z" fill="white"/>
</svg>
