<svg width="160" height="46" fill="none" xmlns="http://www.w3.org/2000/svg"><g clip-path="url(#clip0)" fill="#41ACE2"><path d="M32.01 32.465c.95.003 1.725.31 2.322.92.598.61.894 1.399.89 2.367l-.019 7.414c-.003.931-.304 1.636-.904 2.12-.6.482-1.375.723-2.325.72-.916-.003-1.682-.247-2.296-.731-.615-.484-.922-1.192-.919-2.123l.011-4.136-25.404-.066c-.95-.002-1.75-.335-2.4-1a3.293 3.293 0 01-.973-2.393l.088-32.88C.086.888 1.179-.006 3.363 0c2.006.006 3.08.903 3.215 2.694l-.076 29.703 15.897.043.076-29.703c.003-.894.302-1.565.902-2.012.6-.447 1.392-.668 2.378-.665.916.003 1.663.238 2.243.705.58.467.868 1.13.868 1.989l-.076 29.703 3.22.008zM64.091 3.436c2.776 2.37 4.16 5.668 4.148 9.895-.008 3.582-1.119 6.649-3.325 9.205-2.206 2.556-5.105 3.828-8.698 3.817l-8.185-.02-.026 10.153c-.003.86-.304 1.548-.904 2.066-.6.516-1.375.777-2.325.774-.916-.003-1.682-.246-2.296-.73-.615-.485-.922-1.158-.919-2.018l.082-32.766c.003-.932.321-1.72.958-2.362.634-.642 1.428-.997 2.378-1.069L56.28.41c2.888.006 5.491 1.014 7.81 3.026zm-2.242 9.878c.002-1.539-.53-2.983-1.601-4.327-1.07-1.347-2.398-2.02-3.981-2.023l-8.186-.02-.034 12.838 8.186.02c1.443.003 2.739-.7 3.888-2.112 1.147-1.416 1.725-2.874 1.727-4.376zM109.521.278c1.02.003 1.874.31 2.559.92.684.61 1.025 1.381 1.023 2.312l-.085 33.088c-.003.894-.313 1.602-.93 2.12-.617.516-1.4.777-2.353.774-.915-.003-1.67-.255-2.268-.757-.597-.501-.913-1.2-.947-2.097l.054-21.648-9.752 15.386c-.178.358-.538.76-1.085 1.207-.546.447-1.189.667-1.93.667-1.127-.002-2.077-.596-2.849-1.78l-9.732-15.548-.053 21.698c-.037.86-.367 1.54-.984 2.038-.617.499-1.366.748-2.246.745-.882-.003-1.637-.272-2.268-.81-.631-.54-.947-1.222-.944-2.044l.085-33.033a3.45 3.45 0 01.876-2.335c.583-.662 1.35-.992 2.3-.99 1.23.004 2.234.634 3.006 1.89l12.832 21.25 13.203-21.398c.567-1 1.395-1.553 2.488-1.656zM156.419.4c1.02.004 1.874.31 2.558.92.685.611 1.026 1.382 1.023 2.313l-.084 33.088c-.003.897-.313 1.602-.93 2.12-.617.516-1.401.777-2.353.774-.916-.003-1.671-.255-2.268-.757-.598-.501-.913-1.2-.947-2.097l.053-21.648-9.757 15.392c-.178.358-.538.76-1.085 1.206-.547.447-1.189.668-1.93.668-1.127-.003-2.077-.596-2.849-1.78l-9.724-15.554-.053 21.699c-.037.86-.367 1.538-.984 2.037-.617.499-1.366.748-2.245.745-.882-.003-1.637-.272-2.269-.81-.631-.54-.946-1.222-.944-2.044l.085-33.033a3.438 3.438 0 01.876-2.335c.584-.662 1.35-.992 2.3-.989 1.231.003 2.234.633 3.006 1.888l12.832 21.25 13.201-21.396c.566-1 1.395-1.553 2.488-1.656z"/></g><defs><clipPath id="clip0"><path fill="#fff" d="M0 0h160v46H0z"/></clipPath></defs></svg>