<svg width="216" height="37" fill="none" xmlns="http://www.w3.org/2000/svg"><g clip-path="url(#clip0)"><path d="M215.665 30.301H43.936V37h171.729v-6.7zM0 .584h28.272v6.968H8.033v6.654h18.588l-2.767 6.744H8.034v9.171h30.502v6.901H0V.584z" fill="#FBBF19"/><path d="M38.536 21.017H28.34l2.767-6.72h7.43v6.72zm5.713 3.755V.45h5.087v24.322H44.25zm28.339-8.295H57.57c.357 2.54 1.852 3.799 5.155 3.799 3.057 0 4.552-.854 5.02-2.09h4.932c-.514 4.068-3.794 6.585-9.975 6.585-6.448 0-10.108-3.259-10.108-9.575 0-6.182 3.749-9.576 10.108-9.576 2.656 0 4.776.674 6.382 1.775 3.637 2.473 3.972 6.474 3.66 9.082h-.156zM57.77 13.083h9.93c-.424-1.417-1.34-2.968-4.976-2.968-2.812 0-4.352 1.057-4.954 2.968zm34.008-4.496V5.8h5.11v18.972h-5.11v-2.653h-.157c-1.271 1.641-3.414 2.653-6.962 2.653-7.899 0-8.791-6.924-8.791-9.486 0-2.765.848-9.486 8.791-9.486 3.481 0 5.601 1.101 6.895 2.787h.224zm-.313 6.699c0-2.563-.892-5.058-5.31-5.058-4.887 0-5.4 3.574-5.4 5.058 0 1.371.557 5.057 5.4 5.057 4.418 0 5.31-2.18 5.31-5.057zm23.363-8.992l-.803 4.855c-.469-.135-1.763-.427-3.37-.427-3.793 0-4.909 2.967-4.909 5.552v8.497h-5.11V5.821h5.11V8.61h.313c1.048-1.82 2.209-2.787 5.444-2.787 1.361 0 2.455.27 3.325.472zm22.783 8.991v9.486h-5.066v-9.486c0-1.483.313-5.057-4.574-5.057-4.396 0-5.065 2.832-5.065 5.395v9.148h-5.11V5.821h5.11V8.61h.245c1.205-1.663 2.923-2.787 6.293-2.787 7.943 0 8.167 6.698 8.167 9.463zm3.681 9.487V5.935h5.088v18.837h-5.088z" fill="#585857"/><path d="M141.292 4.586V0h5.088v4.586h-5.088z" fill="#FBBF19"/><path d="M169.854 15.285v9.486h-5.065v-9.486c0-1.483.313-5.057-4.574-5.057-4.396 0-5.066 2.832-5.066 5.395v9.148h-5.109V5.821h5.109V8.61h.246c1.205-1.663 2.923-2.787 6.292-2.787 7.944 0 8.167 6.698 8.167 9.463zm24.1-9.261v16.927c0 3.889-.714 10.947-10.086 10.947-8.457 0-10.064-4.608-10.064-7.418h5.065c.112 1.012 1.004 2.99 4.999 2.99 3.436 0 4.998-2.27 4.998-5.732v-1.394h-.223c-1.272 1.64-3.414 2.652-6.962 2.652-7.899 0-8.792-6.923-8.792-9.486 0-2.764.848-9.486 8.792-9.486 3.481 0 5.601 1.102 6.895 2.788h.29V6.024h5.088zm-5.512 9.486c0-2.562-.893-5.057-5.311-5.057-4.886 0-5.4 3.596-5.4 5.057 0 1.372.558 5.058 5.4 5.058 4.418 0 5.311-2.203 5.311-5.058zM216 19.152c0 4.698-3.347 5.62-9.127 5.62-4.262 0-7.185-.787-8.68-2.316-1.294-1.326-1.294-2.922-1.272-3.889v-.36h5.244v.158c0 1.619 1.205 2.338 4.597 2.338 2.053 0 3.994-.27 3.994-1.484 0-1.416-1.83-1.686-3.838-1.933-.268-.022-.535-.067-.803-.09-5.4-.72-8.77-1.933-8.77-5.71 0-2.652 1.518-5.799 8.747-5.799 7.788 0 9.439 3.484 9.439 6.384v.157h-5.199v-.157c0-1.484-1.249-2.293-4.24-2.293-2.856 0-3.436 1.034-3.436 1.619 0 .831.58 1.303 3.86 1.798l.424.067c4.218.652 9.06 1.394 9.06 5.89z" fill="#585857"/></g><defs><clipPath id="clip0"><path fill="#fff" d="M0 0h216v37H0z"/></clipPath></defs></svg>