<svg width="154" height="90" fill="none" xmlns="http://www.w3.org/2000/svg"><g clip-path="url(#clip0)"><path d="M15.658 89.998c-.009-1.444-.022-2.827-.024-4.212-.017-8.258-.022-16.517-.061-24.777-.004-.667.335-.66.79-.66 3.572-.005 7.145-.012 10.717-.022 5.3-.017 10.6-.046 15.9-.053.698-.002 1.396.102 2.095.158.384 5.578-4.288 14.273-14.65 14.748-.223 5.48-2.488 9.854-7.273 12.757a13.788 13.788 0 01-7.494 2.061zm78.494-15.033l-.05-14.78 29.601-.117.025 14.84-29.576.057z" fill="#6220B3"/><path d="M15.924.046c1.53-.14 2.912.148 4.263.56A14.87 14.87 0 0130.738 14.85c.024 4.6.046 9.202.067 13.802.002.28-.041.56-.073.969l-14.686.029L15.924.046z" fill="#7FDD36"/><path d="M77.53 58.958c-.005-1.946-.017-3.813-.016-5.68.005-3.433-.168-6.878.065-10.295.503-7.372 6.154-12.967 13.514-13.635.357-.033.718-.006 1.148-.007l.04 29.625c-4.925-.003-9.807-.007-14.751-.008z" fill="#6220B3"/><path d="M46.721.002c.03 9.84.057 19.63.086 29.547-.88.015-1.715.037-2.552.043-3.801.02-7.601.032-11.403.06-.58.006-.836-.125-.833-.81.019-4.63.022-9.26-.042-13.89C31.86 6.85 38.667-.133 46.72.002z" fill="#7FDD36"/><path d="M46.241 59.046c.223-5.552 2.492-9.894 7.191-12.665 5.343-3.15 10.82-2.996 15.975.471 4.198 2.822 6.266 6.94 6.445 12.131-9.921.02-19.717.043-29.61.063zm47.817-14.924c3.93.061 7.261 1.333 10.061 3.937 2.795 2.6 4.311 5.858 4.793 9.654.242-2.091.785-4.064 1.805-5.873 2.528-4.484 6.326-7.106 11.461-7.722.281-.034.568-.013.85-.034.467-.032.654.157.653.643-.011 4.545-.004 9.089-.004 13.635 0 .113-.017.225-.041.53-9.826.01-19.641.023-29.523.033-.017-4.947-.036-9.793-.055-14.803zM45.122 59.06c-9.834.017-19.625.032-29.547.05.143-4.857 1.963-8.786 5.719-11.65 4.919-3.75 10.294-4.206 15.838-1.508 4.87 2.368 8.137 7.79 7.99 13.108z" fill="#6220B3"/><path d="M14.755 44.244a12.977 12.977 0 01-4.849-.78C3.892 41.358-.053 35.555.034 29.16.095 24.702.015 20.24 0 15.782c-.002-.25.01-.5.015-.802 1.634-.085 3.155.222 4.633.72 6.108 2.055 10.092 7.565 10.153 14.097.043 4.572.01 9.146.009 13.72.001.22-.031.44-.055.727z" fill="#7FDD36"/><path d="M61.158 60.24l14.658-.017c.017 1.08.04 2.118.046 3.154.026 3.633.041 7.263.072 10.895.003.491-.068.795-.685.791-4.449-.025-8.898-.022-13.348-.023-.462 0-.813-.017-.811-.662.008-4.313-.017-8.625-.024-12.938 0-.361.055-.723.092-1.2zm16.372-.01c2.938-.01 5.738-.014 8.538-.034 1.814-.012 3.626-.04 5.44-.079.535-.012.848.09.845.732-.024 4.454-.022 8.908-.032 13.36 0 .222-.033.444-.057.73-1.461.016-2.87.038-4.278.045-3.258.013-6.517.001-9.775.042-.61.009-.724-.247-.72-.748.02-3.121.034-6.24.044-9.36.005-1.527-.004-3.056-.005-4.688zm47.839 14.433c-.004-4.865-.005-9.736-.009-14.703 4.946-.022 9.785-.043 14.779-.063.022 3.58-1.119 6.686-3.323 9.422-3.076 3.816-7.882 5.531-11.447 5.344zm.093-15.861c-1.051-6.949 7.709-15.746 14.616-14.63.024 1.4.063 2.811.068 4.223.012 3.262-.004 6.526.024 9.788.005.553-.138.749-.709.745-4.278-.027-8.557-.023-12.837-.039-.392 0-.78-.056-1.162-.087z" fill="#6220B3"/><path d="M62.596 14.846c.008 4.896.017 9.74.024 14.687l-14.626.043c-.528-7.674 6.552-14.977 14.602-14.73z" fill="#7FDD36"/><path d="M147.673 30.16a6.881 6.881 0 016.305 7.41c-.002.024-.003.048-.007.072-.342 3.866-3.744 6.758-7.525 6.398-3.89-.37-6.67-3.85-6.298-7.885.323-3.528 3.822-6.315 7.525-5.996zM52.577 74.975c-3.86-.295-6.617-3.501-6.327-7.358a6.937 6.937 0 017.375-6.371c3.783.28 6.678 3.62 6.377 7.356-.266 3.788-3.548 6.644-7.331 6.378a.887.887 0 01-.094-.005z" fill="#6220B3"/><path d="M38.471 36.648c.167-.387.35-.77.5-1.163.411-1.078.878-1.161 1.677-.285a.51.51 0 00.158-.036c.768-.424 1.588-.806 2.375-.163.78.636.61 1.517.344 2.361-.333 1.054-.624 2.125-1.03 3.152-.106.266-.57.39-.87.58-.199-.33-.608-.696-.555-.98.148-.797.492-1.558.746-2.34.17-.524.315-1.058.49-1.65-1.408.23-2.699 1.552-3.031 2.988-.09.387-.155.78-.223 1.17-.07.41-.186.912-.692.718-.334-.128-.771-.628-.747-.926.07-.836.35-1.654.562-2.476.085-.328.206-.647.31-.97l-.014.02zm14.202.267l-.706-.953c.312-.172.636-.33.932-.525.186-.123.42-.28.475-.468.147-.513.152-1.07.326-1.57.11-.317.422-.563.645-.84.245.296.665.574.697.893.053.508-.148 1.043-.27 1.707.561-.111 1.041-.202 1.518-.3.441-.093.992-.304 1.15.296.17.641-.427.76-.89.894-.435.124-.874.23-1.312.348-.883.237-1.611 1.753-1.157 2.537.096.164.66.261.821.14.49-.367.872-.873 1.33-1.286.205-.184.494-.274.745-.407.04.296.221.682.099.874-.46.722-.927 1.487-1.567 2.03-.614.52-1.452.41-2.165.005-.675-.382-.833-1.04-.797-1.757.029-.566.087-1.129.126-1.618zM19.841 40c.567-2.341 1.092-4.487 1.606-6.632.085-.356.092-.736.213-1.08.084-.236.29-.586.463-.6a.98.98 0 01.762.365c.172.284.238.62.187.947a367.315 367.315 0 01-1.584 7.897 1.089 1.089 0 01-.593.685c-.14.053-.514-.27-.645-.501A6.185 6.185 0 0119.84 40z" fill="#000"/><path d="M38.486 36.624c-.385.474-.746.669-1.354.222-.223-.164-.85-.005-1.146.208-1.017.728-1.068 1.928-1.298 3.027a1.126 1.126 0 00-.012.168c-.019.483.04 1.037-.684 1.018-.457-.011-.895-.75-.79-1.314.193-1.029.411-2.053.61-3.082a9.93 9.93 0 01.164-1.002c.126-.34.273-.67.441-.991l1.041.585c1.628-.9 2.437-.616 3.011 1.185a.208.208 0 00.017-.024zm19.474.378c.798-1.727 1.529-3.371 2.336-4.977.108-.213.607-.23.923-.338.028.287.147.6.069.854-.506 1.615-1.026 3.228-1.625 4.81-.092.243-.629.451-.944.429-.233-.017-.44-.431-.76-.778zm-8.925 2.988c.37-1.422.7-2.856 1.146-4.253.082-.258.649-.523.97-.501.488.034.506.467.39.919-.357 1.396-.672 2.803-1.011 4.203-.1.413-.165.89-.797.705-.535-.156-.825-.476-.698-1.073zm10.003-1.345c.124.208.47.547.518.922.081.646-.508 1.08-1.239 1.033-.548-.034-.921-.255-.868-.885.047-.596.672-1.122 1.589-1.07zm-7.658-4.139c-.336-.537-.741-.931-.663-1.112.164-.373.585-.633.901-.94.252.282.746.616.7.834-.078.376-.495.68-.938 1.218zm-18.959.667c-.926-.132-1.899-.3-2.754.4-1.14.935-1.914 2.064-2.058 3.252-.597.207-1.05.306-1.446.512-.723.377-1.415.812-2.248.411l-.075-.273c.242-.078.486-.153.726-.239.69-.245 1.419-.417 2.054-.762.816-.441 1.046-1.233.744-2.032-.291-.773-.94-1.17-1.82-1.068-1.617.188-2.312 1.557-3.128 2.658-.29.394-.097 1.242.041 1.844.254 1.105.855 1.536 2.002 1.603 1.325.077 2.415-.428 3.29-1.414.983 1.315.983 1.315 2.841.486.1.162.223.31.365.438.213.149.497.36.696.313.203-.048.438-.353.49-.585.333-1.434.628-2.879.916-4.323.11-.563-.069-1.141-.636-1.221zm-6.309 1.51c.811.217-1.57.691-1.57.691s.76-.907 1.57-.69zm3.025 2.893c-.001-1.378.888-2.5 2.298-2.949-.334 1.35-1.168 2.197-2.298 2.949z" fill="#000"/></g><defs><clipPath id="clip0"><path fill="#fff" d="M0 0h154v90H0z"/></clipPath></defs></svg>