<svg width="284" height="29" fill="none" xmlns="http://www.w3.org/2000/svg"><g clip-path="url(#clip0)" fill="#41ACE2"><path fill-rule="evenodd" clip-rule="evenodd" d="M0 22.25c0-1.561 1.27-2.831 2.868-2.831h2.867v9.545H0V22.25zm10.49-9.547c0-1.56 1.27-2.867 2.868-2.867h2.867v19.091H10.49V12.703zm10.49-9.509A2.85 2.85 0 0123.849.326h2.868v28.637H20.98V3.193z"/><path d="M43.595 12.014h2.54c.509 0 .944-.073 1.343-.254.364-.182.727-.508 1.053-1.016l5.735-8.893A3.82 3.82 0 0155.283.726c.399-.29.87-.435 1.415-.435h5.01l-7.333 11.287a4.904 4.904 0 01-1.161 1.27 5.332 5.332 0 01-1.489.8c.835.217 1.525.58 2.106 1.088.58.508 1.125 1.198 1.633 2.105l6.933 11.832h-5.372c-.544 0-.98-.145-1.343-.435-.363-.29-.69-.69-1.016-1.234l-5.409-9.22a3.394 3.394 0 00-.508-.689 2.214 2.214 0 00-.58-.435 2.192 2.192 0 00-.69-.218 5.955 5.955 0 00-.835-.073h-3.05v12.305h-5.88V.326h5.88v11.687zM70.746 24.21c.29-.037.58-.146.871-.291.29-.145.58-.363.835-.617a6.04 6.04 0 00.762-1.125l1.017-2.033L62.869.291h5.517c.509 0 .908.108 1.198.362.29.255.545.545.726.944l4.937 9.51c.326.58.617 1.197.871 1.778.254.617.472 1.198.69 1.815a23.445 23.445 0 011.415-3.63l4.32-9.51c.145-.326.4-.616.726-.87.326-.29.726-.4 1.234-.4h4.864L77.933 24.609c-.4.872-.871 1.597-1.343 2.142-.472.544-1.017 1.016-1.561 1.306a5.26 5.26 0 01-1.779.654 11.66 11.66 0 01-1.996.181c-1.016 0-1.779-.109-2.214-.29-.472-.182-.69-.436-.69-.799v-3.63h1.597c.254.11.508.073.799.037zm27.914-5.3v9.763h-5.88V.326h9.582c1.96 0 3.63.218 5.046.69 1.415.472 2.577 1.089 3.484 1.887.908.835 1.597 1.779 2.033 2.904.436 1.125.653 2.359.653 3.666 0 1.379-.217 2.685-.689 3.847a8.157 8.157 0 01-2.069 2.976c-.944.835-2.106 1.488-3.485 1.96-1.416.472-3.049.69-4.937.69H98.66v-.037zm0-4.501h3.702c1.851 0 3.194-.436 4.029-1.343.871-.871 1.271-2.105 1.271-3.63 0-.69-.109-1.343-.327-1.923a3.807 3.807 0 00-.98-1.488c-.436-.4-.98-.726-1.633-.944-.654-.218-1.452-.327-2.36-.327H98.66v9.655zm38.948 7.296c.327 0 .581.109.835.363l2.323 2.468c-1.162 1.451-2.577 2.577-4.283 3.339-1.706.762-3.703 1.125-6.062 1.125-2.142 0-4.029-.363-5.735-1.089a12.677 12.677 0 01-4.32-3.012c-1.198-1.27-2.105-2.831-2.722-4.574-.654-1.778-.944-3.702-.944-5.807 0-1.415.145-2.758.472-4.029.29-1.27.762-2.431 1.343-3.52a15.245 15.245 0 012.105-2.904 13.662 13.662 0 012.795-2.214c1.053-.617 2.178-1.053 3.412-1.38 1.198-.326 2.505-.471 3.92-.471 1.053 0 2.033.109 2.977.29.944.182 1.815.436 2.613.763.799.326 1.561.725 2.251 1.197.69.472 1.307.98 1.851 1.525l-1.96 2.686a1.25 1.25 0 01-.436.435c-.181.145-.435.182-.762.182-.326 0-.617-.11-.944-.327a23.059 23.059 0 00-1.161-.726c-.472-.29-1.053-.508-1.742-.726-.69-.218-1.561-.327-2.65-.327-1.198 0-2.287.218-3.267.654-.98.435-1.851 1.052-2.541 1.85-.726.8-1.27 1.816-1.67 3.013-.399 1.198-.58 2.541-.58 4.03 0 1.524.217 2.867.617 4.064.435 1.198 1.016 2.178 1.742 3.013a6.779 6.779 0 002.577 1.85c.98.436 2.033.618 3.158.618.653 0 1.271-.037 1.815-.11a9.419 9.419 0 001.525-.326 5.41 5.41 0 001.306-.617c.4-.254.835-.544 1.234-.943.146-.11.291-.218.436-.29a1.61 1.61 0 01.472-.073zm34.193-7.223c0 2.069-.363 3.992-1.053 5.77-.689 1.78-1.669 3.304-2.94 4.574-1.27 1.307-2.795 2.287-4.573 3.049-1.779.726-3.776 1.089-5.953 1.089-2.178 0-4.175-.363-5.953-1.09-1.779-.725-3.304-1.741-4.574-3.048s-2.251-2.831-2.977-4.573c-.689-1.779-1.052-3.702-1.052-5.771s.363-3.993 1.052-5.771c.69-1.779 1.67-3.303 2.977-4.573 1.27-1.27 2.795-2.287 4.574-3.05C153.107.364 155.104 0 157.282 0c2.177 0 4.174.363 5.953 1.089 1.778.726 3.303 1.742 4.573 3.049a13.522 13.522 0 012.94 4.61c.69 1.778 1.053 3.665 1.053 5.734zm-5.989 0c0-1.488-.218-2.831-.581-3.993-.399-1.161-.944-2.177-1.706-3.012-.726-.835-1.634-1.452-2.686-1.888-1.053-.435-2.251-.653-3.557-.653-1.343 0-2.541.218-3.558.653-1.052.436-1.96 1.053-2.686 1.888a8.395 8.395 0 00-1.67 3.012c-.399 1.198-.58 2.505-.58 3.993s.181 2.83.58 4.029c.4 1.197.944 2.177 1.67 3.012s1.634 1.452 2.686 1.887c1.053.436 2.251.654 3.558.654 1.343 0 2.504-.218 3.557-.654 1.052-.435 1.96-1.052 2.686-1.887a8.699 8.699 0 001.706-3.012 13.83 13.83 0 00.581-4.03zm26.28 3.267c.218.471.436.98.617 1.488a27.02 27.02 0 01.617-1.525c.218-.508.472-.98.69-1.415l7.877-15.063a2.04 2.04 0 01.363-.508c.109-.109.29-.218.435-.29a1.16 1.16 0 01.508-.11c.182 0 .4-.035.69-.035h4.465v28.383h-5.191V11.252c0-.363 0-.726.036-1.162 0-.435.037-.835.073-1.306l-8.095 15.389c-.435.835-1.125 1.27-2.069 1.27h-.834c-.472 0-.872-.109-1.198-.326-.363-.218-.617-.545-.835-.944L182.11 8.747l.109 1.307c.036.435.036.835.036 1.198v17.422h-5.191V.326h4.465c.254 0 .472 0 .654.036.181 0 .363.036.508.109.145.073.29.145.399.29.109.146.254.29.363.508l7.949 15.136c.254.399.472.87.69 1.343zM233.291.326V4.9h-12.16v7.296h9.474v4.428h-9.474v7.44h12.16v4.61h-18.04V.326h18.04zm25.445 0v4.719h-8.276v23.628h-5.917V5.045h-8.276V.326h22.469zm10.382 18.584v9.763h-5.881V.326h9.583c1.96 0 3.63.218 5.046.69 1.415.472 2.577 1.089 3.484 1.887.908.835 1.597 1.779 2.033 2.904.436 1.125.653 2.359.653 3.666 0 1.379-.217 2.685-.689 3.847a8.157 8.157 0 01-2.069 2.976c-.944.835-2.106 1.488-3.485 1.96-1.416.472-3.049.69-4.937.69h-3.738v-.037zm0-4.501h3.702c1.851 0 3.194-.436 4.029-1.343.835-.871 1.271-2.105 1.271-3.63 0-.69-.109-1.343-.327-1.923a3.807 3.807 0 00-.98-1.488c-.436-.4-.98-.726-1.633-.944-.654-.218-1.452-.327-2.36-.327h-3.702v9.655z"/></g><defs><clipPath id="clip0"><path fill="#fff" d="M0 0h284v29H0z"/></clipPath></defs></svg>