<svg xmlns="http://www.w3.org/2000/svg" version="1.1" xmlns:xlink="http://www.w3.org/1999/xlink" xmlns:svgjs="http://svgjs.com/svgjs" height="268.57704162597656" width="283.2899871826172"><defs id="1"></defs><g id="2" rel="mainfill" name="main_text" xmlns:name="main_text" transform="translate(82.02499358654023,-79.09648132324219)" fill="#ffffff"><path d="M51.03 226.92L40.76 186.77L10.04 186.77L10.04 198.40L14.98 199.92L7.22 226.92L1.37 228.44L1.37 240L24.18 240L24.18 228.44L20.46 226.92L21.75 222.21L33.23 222.21L34.60 226.92L30.57 228.44L30.57 240L57.57 240L57.57 228.44L51.03 226.92M27.30 201.14L30.72 213.08L23.95 213.08L27.30 201.14ZM117.87 198.40L117.87 186.77L92.47 186.77L92.47 198.40L96.20 199.92L84.33 210.27L84.33 199.92L87.98 198.40L87.98 186.77L62.28 186.77L62.28 198.40L68.06 199.92L68.06 226.92L62.28 228.44L62.28 240L88.14 240L88.14 228.44L84.33 226.92L84.33 221.37L90.42 216.27L96.35 226.92L92.55 228.44L92.55 240L117.87 240L117.87 228.44L112.47 226.92L101.90 207.07L110.49 199.92L117.87 198.40Z" fill="#ffffff" style="fill: rgb(255, 255, 255);"></path></g><g id="3" transform="translate(0,0) scale(2.1)" rel="mainfill" name="outline_container" xmlns:name="outlineContainer_mainfill" fill="#ffffff"><g fill="#ffffff"><path d="M12.8 67.6l-.4.4.4.4 2.4 2.4c1.6 1.6 3.3 3.2 4.7 4.9s3.4 3.3 4.8 5c3.1 2.9 5.9 6.1 9 9l4.2 4.1 10.1 9.3 6.6 6.1c2.6 2.4 5.2 4.3 5.5 3.9s-.2-.8-1.6-2.2-4.8-5-7.3-7.4l-8.3-8.1-6.9-6.6-2.3-2.3c-2.4-2.4-4.9-4.7-7.1-7.2l-.8-.8-3.4-3.3-7.1-7.2.8-.8.5-.5 1.9 2c1.4 1.7 3.4 3.3 4.8 5 3.1 2.9 5.9 6.1 9 9l4.2 4.1 10.1 9.3 6.6 6.1c2.6 2.4 5.2 4.3 5.5 3.9s-.2-.8-1.6-2.2-4.8-5-7.3-7.4l-8.3-8.1-6.8-6.7-2.3-2.3c-2.4-2.4-4.9-4.7-7.1-7.2l-.8-.8-3.5-3.3-2.9-2.9 2.2-2.1 3-2.9 1-1L34.4 49c2.5-2.5 5-4.9 7.4-7.6s3.9-4.1 5.9-6.1l1.7-1.6 5.9-6.1 9.3-9.1 4.8-4.9h.1c2.8 2.9 5.8 5.6 8.6 8.5l.6.6 6 5.8 4.6 4.5 2.9 2.8c1.6 1.6 3.3 3.1 4.8 4.8l2.1 2c1.3 1.5 2.9 3.1 4.4 4.6l2.9 3c2.1 2.2 4.4 4.3 6.5 6.5l.8.8 2.3 2.1c1.1 1.1 2.3 2.4 3.3 3.3h.1l-4.8 4.9-1.6 2a12.2 12.2 0 0 0-1.8 1.6c-1.4 1.6-3 3-4.5 4.5l-.8.8c-1.6 1.8-3.2 3.7-4.2 5.2s-.5.7-.2.7 2.4-1.2 4.7-3.1l2.4-2.2c4.2-3.7 8-7.7 11.8-11.8l1.3-1.4 1-1-1-.9-2.3-2.2-4.9-4.7-4.6-4.4c-1-1-2.2-2.2-3-3.2a45.7 45.7 0 0 0-3.7-3.9l-3.6-3.5c-2-1.9-4.1-3.7-6.1-5.8L92 33.1c-1.8-1.6-3.5-3.3-5.3-5.1l-1.2-1.2a55.2 55.2 0 0 1-5.6-5.7l-2.7-2.9-2.7-2.8-3.4-3.4 2.1-2.1 3.2 3.1.4.4 5.3 5.1c2.8 2.9 5.8 5.6 8.6 8.5l.6.6 6 5.8 4.6 4.5 2.9 2.8c1.6 1.6 3.3 3.1 4.8 4.8l2.1 2c1.3 1.5 2.9 3.1 4.4 4.6l2.9 3c2.1 2.2 4.4 4.3 6.5 6.5l.8.8 1.6 1.4-1.9 2-2 1.7a12.2 12.2 0 0 0-1.8 1.6c-1.4 1.6-3 3-4.5 4.5l-.8.8c-1.6 1.8-3.2 3.7-4.2 5.2s-.5.7-.2.7 2.4-1.2 4.7-3.1l2.4-2.2c3.4-3 6.5-6.2 9.7-9.5l2.4 2.4h.1l-4.8 4.9-1.8 1.6a12.2 12.2 0 0 0-1.8 1.6c-1.4 1.6-3 3-4.5 4.5l-.8.8c-1.6 1.8-3.2 3.7-4.2 5.2s-.5.7-.2.7 2.4-1.2 4.7-3.1l2.4-2.2c4.2-3.7 8-7.7 11.8-11.8l1.3-1.4 1-1-1-.9-2.4-2.3-.8-.8.6-.6 1.3-1.4 1-1-1-.9-2.4-2.3-4.7-4.5-4.6-4.4c-1-1-2.2-2.2-3-3.2a45.2 45.2 0 0 0-3.7-3.9l-3.7-3.5c-2-1.9-4.1-3.7-6.1-5.8l-1.5-1.4c-1.8-1.6-3.5-3.3-5.3-5.1l-1.2-1.2a54.4 54.4 0 0 1-5.6-5.7L88.1 16l-2.7-2.8c-1.8-1.9-3.7-3.9-5.6-5.7l-6.4-6-1.1-1-.5-.5-.5.5a29.1 29.1 0 0 1-2.6 2.4l-2.5 2.9-.8.8-3-2.8-1.1-1.1-.5-.5-.5.5a29.3 29.3 0 0 1-2.6 2.4L55.1 8c-3.2 3.3-6.7 6.6-9.8 10l-.8.8c-1.7 1.7-3.4 3.5-5.2 5.1l-.6.6-4.5 4.6-1.1 1c-1.7 1.4-3.5 3.3-5.3 4.9L18 45l-2.4 2.4-4.5 4.7c-2.6 2.7-5.4 5.3-8 8L.4 62.8l-.4.4.4.4L2.8 66c1.6 1.6 3.3 3.2 4.7 4.9s3.4 3.3 4.8 5c3.1 2.9 5.9 6.1 9 9l4.1 4.1 10.1 9.3 6.6 6.1c2.6 2.4 5.2 4.3 5.5 3.9s-.2-.8-1.6-2.2-4.8-5-7.3-7.4l-8.3-8.1-6.8-6.6-2.3-2.3c-2.4-2.4-4.9-4.7-7.1-7.2l-.8-.8-3.4-3.3-7.1-7.2.8-.8.9-.8 3.3-3.3 3-2.9 1-1L22 44.2c2.5-2.5 5-4.9 7.4-7.6s3.9-4.1 5.9-6.1l1.7-1.6 6-6.1 9.3-9.1 8.5-8.5 3.1 3c-2.5 2.5-5.1 5.1-7.5 7.7l-.8.8c-1.7 1.7-3.4 3.5-5.2 5.1l-.6.6-4.5 4.6-1.1 1c-1.7 1.4-3.5 3.3-5.3 4.9L29 42.7l-2.4 2.4-4.5 4.7c-2.6 2.7-5.4 5.3-8 8l-2.7 2.7-.4.5.4.4 2.4 2.4 1.4 1.4zm59-64.7l3.2 3 .4.4 5.3 5.1c2.8 2.9 5.8 5.6 8.6 8.5l.6.6 6 5.8 4.6 4.5 2.9 2.8c1.6 1.6 3.3 3.1 4.8 4.8l2.1 2c1.3 1.5 2.9 3.1 4.4 4.6l2.9 3c2.1 2.2 4.4 4.3 6.5 6.5l.8.8 2.3 2.1c1.1 1.1 2.3 2.4 3.3 3.3h.1l-1.3 1.3-2.4-2.3-4.6-4.4c-1-1-2.2-2.2-3-3.2a45 45 0 0 0-3.7-3.9l-3.6-3.5c-2-1.9-4.1-3.7-6.1-5.8l-1.5-1.4c-1.8-1.6-3.5-3.3-5.3-5.1l-1.2-1.2a54.7 54.7 0 0 1-5.6-5.7L89.5 23l-2.7-2.8c-1.8-1.9-3.7-3.9-5.6-5.7l-6.4-5.9-1.1-1.1-.5-.5-.5.5a29.2 29.2 0 0 1-2.6 2.4l-.6.6-.8-.8-2-1.9zM14 61l.8-.8.9-.8 3.2-3.4 3-2.9 1-1 10.2-10.2c2.5-2.5 5-4.9 7.4-7.6s3.9-4.1 5.9-6.1l1.7-1.6 5.9-6.1 9.3-9.1 2-2 2.9 2.8-.6.6c-3.2 3.3-6.7 6.6-9.8 10l-.8.8c-1.7 1.7-3.4 3.5-5.2 5.1l-.6.6-4.5 4.7-1.1 1c-1.7 1.4-3.5 3.3-5.3 4.9l-9.9 9.8-2.4 2.5-4.5 4.7-6.8 6.8z" fill="#ffffff" style="fill: rgb(255, 255, 255);"></path><path d="M100.7 102.9c.9-1 2-2.1 2.6-2.9l4.1-5c1.7-2.1 1.8-2.6 1.5-2.9s-2.5 2.1-3.6 3.3c-3.4 3.4-6.8 6.8-10.2 10-1.8 1.7-3.7 3.7-5.5 5.2l-1.5 1.5-1.8 1.9-5.9 5.8c-2.1 2-3.6 3.8-5.2 5.6l-1.7 2a11 11 0 0 0-.5-1.4l-.4-.6a27.4 27.4 0 0 0-3.5-3.5l-1.2-1.2-1.4-1.4 1.1-1 .9-.8 1.6 1.5 1.9 1.6c-.1.5 0 .8 1.1 0s3.5-2.7 5.5-4.6l1.8-1.6c3-3.1 6-6.1 9.1-9l.8-.8c.9-1 1.8-1.8 2.7-2.7s4.3-3.8 6.5-6.1 2-2.1 2.6-2.9l4.1-5c1.7-2.1 1.8-2.6 1.5-2.9s-2.5 2.1-3.6 3.3c-3.4 3.4-6.8 6.8-10.2 10-1.8 1.7-3.7 3.7-5.5 5.3l-1.5 1.5-2 1.9-5.9 5.8c-2.1 2-3.6 3.8-5.2 5.6l-1.7 2a11.4 11.4 0 0 0-.6-1.4l-.4-.6-1.7-1.8c2.9-3 5.8-5.9 8.8-8.7l.8-.8c.9-1 1.8-1.8 2.7-2.7s4.3-3.8 6.5-6.1 2-2.1 2.6-2.9l4.1-5c1.7-2.1 1.8-2.6 1.5-2.9s-2.5 2.1-3.6 3.3c-3.4 3.4-6.8 6.8-10.2 10-1.8 1.7-3.7 3.7-5.5 5.2l-1.5 1.5-1.8 1.9L68 115l-.4-.3-1.2-1.2-2.2-2.2c-.4-.1-1-.5-.9-.2a11.6 11.6 0 0 0 1.6 2.5l2 2.3-2 2.1c-.2-.1-.3-.1-.2.1l-1.9 2.2-1.7 2a11.5 11.5 0 0 0-.6-1.4l-.4-.6a27.3 27.3 0 0 0-3.5-3.5l-1.2-1.2-2.2-2.2c-.4-.1-1-.5-.9-.2a11.7 11.7 0 0 0 1.6 2.5A48.9 48.9 0 0 0 59 121l1.9 1.6c-.1.5 0 .8 1.1 0l3.7-3 .6.9a48.9 48.9 0 0 0 5.1 5.3l1.9 1.6c-.1.5 0 .8 1.1 0s3.5-2.7 5.5-4.6l1.8-1.6c3-3.1 6-6.1 9.1-9l.8-.8c.9-1 1.8-1.8 2.7-2.7s4.2-3.4 6.4-5.8z" fill="#ffffff" style="fill: rgb(255, 255, 255);"></path></g></g></svg>