<?xml version='1.0' encoding='iso-8859-1'?>
<svg version="1.1" xmlns="http://www.w3.org/2000/svg" viewBox="4 4 35 35" xmlns:xlink="http://www.w3.org/1999/xlink" enable-background="new 4 4 35 35">
  <defs>
<linearGradient id="lgrad" x1="0%" y1="100%" x2="100%" y2="0%" >
<stop offset="0%" style="stop-color:rgba(168,64,175,1);stop-opacity:1" />
<stop offset="50%" style="stop-color:rgba(171,181,6,1);stop-opacity:1" />
<stop offset="100%" style="stop-color:rgba(226,9,28,1);stop-opacity:1" />
</linearGradient>
</defs>
  <g>
    <g>
      <path fill="url(#lgrad)" d="m3,26.5c0,0.553 0.448,1 1,1h25v-2h-25c-0.552,0-1,0.447-1,1zm37,5h-7c-0.553,0-1,0.447-1,1 0,0.553 0.447,1 1,1h7c0.553,0 1-0.447 1-1 0-0.553-0.447-1-1-1z"/>
    </g>
  </g>
  <g>
    <g>
      <path fill="url(#lgrad)" d="m42,12.5h-6v-5c0-1.104-0.896-2-2-2h-32c-1.104,0-2,0.896-2,2v22c0,1.104 0.896,2 2,2h9v5h-2c-0.552,0-1,0.447-1,1 0,0.553 0.448,1 1,1h18c0.553,0 1-0.447 1-1 0-0.553-0.447-1-1-1h-2v-5h4v4c0,1.104 0.896,2 2,2h11c1.104,0 2-0.896 2-2v-21c0-1.104-0.896-2-2-2zm-19,24h-10v-5h10v5zm6-22v15h-27v-22h32v5h-3c-1.104,0-2,0.896-2,2zm13,21h-11v-21h11v21z"/>
    </g>
  </g>
</svg>
