<svg width="109" height="34" fill="none" xmlns="http://www.w3.org/2000/svg"><path d="M43.45.823l-5.515 32.362h8.82L52.276.823H43.45zM30.538.858l-8.639 22.07-.92-3.332c-1.705-4.015-6.541-9.782-12.22-13.416l7.9 26.989 9.332-.016L39.882.85l-9.343.007z" fill="#0056A4"/><path d="M17.631 3.173c-.513-1.97-1.999-2.558-3.843-2.629H.113L0 1.188C10.642 3.77 17.683 9.99 20.605 17.47L17.631 3.173z" fill="#FFA800"/><path d="M70.151 7.027c2.886-.046 4.978.585 6.602 1.238l.796.375 1.193-7.015C76.996.97 74.257.267 70.841.267c-8.716 0-14.859 4.39-14.906 10.68-.057 4.648 4.375 7.243 7.724 8.793 3.437 1.588 4.59 2.597 4.573 4.015-.027 2.166-2.74 3.16-5.274 3.16-3.532 0-5.408-.488-8.305-1.695l-1.137-.517-1.24 7.244c2.064.905 5.873 1.683 9.827 1.724 9.271 0 15.296-4.338 15.36-11.06.038-3.677-2.314-6.483-7.411-8.785-3.086-1.502-4.973-2.5-4.955-4.016 0-1.345 1.602-2.783 5.054-2.783zM101.376.86h-6.815c-2.117 0-3.69.577-4.621 2.686L76.844 33.205h9.262s1.511-3.988 1.854-4.861c1.014 0 10.013.013 11.294.013a618.33 618.33 0 011.076 4.848h8.182L101.376.86zM90.498 21.72c.726-1.858 3.514-9.045 3.514-9.045-.048.088.72-1.872 1.175-3.09l.594 2.79 2.044 9.345h-7.327z" fill="#0056A4"/></svg>