<svg width="94" height="76" fill="none" xmlns="http://www.w3.org/2000/svg"><g clip-path="url(#clip0)"><path d="M40.604 74.319c-.804 0-1.126-.505-1.126-1.346V69.36h2.735v-1.6h-2.735v-2.438h-1.69v2.438H36.26v1.598h1.528v3.699c0 1.849.725 2.942 2.656 2.942.724 0 1.528-.252 2.091-.588l-.482-1.513c-.483.336-1.046.42-1.449.42zm-26.472-6.726c-.966 0-2.012.336-2.736 1.43-.563-.925-1.368-1.43-2.574-1.43-.804 0-1.61.252-2.253 1.176v-1.008h-1.69v8.07h1.69v-4.455c0-1.43.724-2.103 1.85-2.103 1.126 0 1.69.757 1.69 2.103v4.456h1.69v-4.456c0-1.43.804-2.103 1.85-2.103 1.126 0 1.69.757 1.69 2.103v4.456h1.85v-5.045c0-1.932-1.126-3.194-3.057-3.194zm18.264 3.363l-.804-.084c-.725-.085-1.288-.252-1.288-.757 0-.588.563-.925 1.448-.925.966 0 1.931.42 2.414.673l.724-1.43c-.804-.588-1.931-.84-3.138-.84-1.93 0-3.218 1.009-3.218 2.606 0 1.345.965 2.102 2.655 2.354l.804.084c.885.17 1.368.421 1.368.84 0 .589-.643 1.01-1.77 1.01a4.319 4.319 0 01-2.574-.84l-.804 1.344c.885.673 2.091 1.01 3.299 1.01 2.253 0 3.54-1.094 3.54-2.607 0-1.43-1.047-2.185-2.656-2.438zm-7.402-2.186c-.563-.757-1.368-1.176-2.413-1.176-2.172 0-3.862 1.766-3.862 4.203 0 2.438 1.69 4.203 3.862 4.203 1.126 0 1.93-.42 2.413-1.177v1.01h1.69V67.76h-1.69v1.01zm-2.253 5.633c-1.447-.084-2.333-1.177-2.333-2.606 0-1.43.884-2.606 2.333-2.606 1.368 0 2.334 1.093 2.334 2.606 0 1.43-.966 2.606-2.334 2.606zm64.931-9.837v4.203c-.563-.757-1.368-1.176-2.413-1.176-2.173 0-3.862 1.766-3.862 4.203 0 2.438 1.69 4.203 3.862 4.203 1.126 0 1.93-.42 2.413-1.176v1.008h1.69V64.566h-1.69zM85.5 74.403c-1.448-.084-2.334-1.177-2.334-2.606 0-1.43.885-2.606 2.334-2.606 1.368 0 2.333 1.093 2.333 2.606 0 1.43-.966 2.606-2.333 2.606zM72.143 68.77c-.563-.757-1.368-1.176-2.414-1.176-2.172 0-3.862 1.766-3.862 4.203 0 2.438 1.69 4.203 3.862 4.203 1.126 0 1.931-.42 2.414-1.177v1.01h1.69V67.76h-1.69v1.01zm-2.173 5.633c-1.447-.084-2.333-1.177-2.333-2.606 0-1.43.885-2.606 2.333-2.606 1.368 0 2.334 1.093 2.334 2.606 0 1.43-.966 2.606-2.334 2.606zm7.804-5.633v-1.009h-1.69v8.071h1.69v-4.539c0-1.345.563-2.102 1.61-2.102.32 0 .724.084 1.045.168l.483-1.68c-.321-.085-.804-.085-1.125-.085-.967-.001-1.61.504-2.013 1.176zm-30.332-1.177c-2.253 0-3.862 1.681-3.862 4.203 0 2.522 1.61 4.203 3.943 4.203 1.126 0 2.253-.336 3.138-1.093l-.805-1.26c-.643.503-1.447.84-2.252.84-1.047 0-2.092-.504-2.334-1.934h5.712v-.673c.081-2.605-1.368-4.286-3.54-4.286zM45.35 71.04c.161-1.093.885-1.933 2.091-1.933 1.046 0 1.77.672 1.931 1.933H45.35zm16.895-1.85c.725 0 1.368.253 2.012.758l.804-1.43c-.804-.672-1.61-.924-2.735-.924-2.494 0-4.103 1.766-4.103 4.203 0 2.438 1.609 4.203 4.103 4.203 1.126 0 1.93-.252 2.735-.924l-.804-1.43c-.644.504-1.287.757-2.012.757-1.368 0-2.333-1.009-2.333-2.606 0-1.514.966-2.523 2.333-2.606zm-7.723-.42v-1.009h-1.69v8.071h1.69v-4.539c0-1.345.563-2.102 1.61-2.102.321 0 .724.084 1.045.168l.483-1.68c-.322-.085-.804-.085-1.126-.085-.967-.001-1.61.504-2.012 1.176z" fill="#000"/><path d="M35.937 30.265c0-9.668 4.344-18.243 11.022-23.792C42.052 2.438 35.856 0 29.097 0 13.087 0 .134 13.535.134 30.265s12.953 30.266 28.965 30.266c6.758 0 12.953-2.439 17.861-6.474-6.678-5.464-11.022-14.124-11.022-23.792z" fill="#EB001B"/><path d="M93.865 30.266c0 16.73-12.953 30.265-28.964 30.265-6.759 0-12.954-2.438-17.862-6.474 6.759-5.548 11.022-14.124 11.022-23.792 0-9.668-4.344-18.243-11.022-23.793C51.947 2.44 58.142 0 64.901 0c16.011 0 28.964 13.62 28.964 30.266z" fill="#F79E1B"/><path d="M35.935 30.266c0 9.668 4.345 18.327 11.023 23.792h.08c6.76-5.548 11.023-14.124 11.023-23.792 0-9.668-4.344-18.243-11.022-23.792h-.081c-6.678 5.549-11.023 14.124-11.023 23.792z" fill="#FF5F00"/></g><defs><clipPath id="clip0"><path fill="#fff" transform="translate(.133)" d="M0 0h93.733v76H0z"/></clipPath></defs></svg>