<svg width="125" height="36" fill="none" xmlns="http://www.w3.org/2000/svg"><g clip-path="url(#clip0)" fill-rule="evenodd" clip-rule="evenodd"><path d="M111.068.267h-23.56c1.267 7.853 8.867 15.2 17.226 15.2h18.747c.253-.76.253-1.774.253-2.534 0-7.093-5.573-12.666-12.666-12.666z" fill="url(#paint0_linear)"/><path d="M89.535 16.733v19h11.4V25.6h10.133c5.574 0 10.387-3.8 11.907-8.867h-33.44zM49 .267v35.466h10.133s2.534 0 3.8-2.533L71.8 15.467h1.267v20.266h11.4V.267H74.333S71.8.52 70.533 2.8l-8.866 17.733H60.4V.267H49zM.867 35.733V.267h11.4s3.293 0 5.067 5.066c4.56 13.427 5.067 15.2 5.067 15.2s1.013-3.293 5.066-15.2C29.241.267 32.534.267 32.534.267h11.4v35.466h-11.4v-19h-1.267l-6.333 19h-5.067l-6.333-19h-1.267v19H.867z" fill="#4DB45F"/></g><defs><linearGradient id="paint0_linear" x1="87.442" y1="7.867" x2="123.734" y2="7.867" gradientUnits="userSpaceOnUse"><stop stop-color="#00B4E6"/><stop offset="1" stop-color="#088CCB"/></linearGradient><clipPath id="clip0"><path fill="#fff" transform="translate(.867 .267)" d="M0 0h124.133v35.467H0z"/></clipPath></defs></svg>