<svg width="230" height="32" fill="none" xmlns="http://www.w3.org/2000/svg"><path d="M125.005 22.836c.294 0 .661-.074.956-.22.294-.148.514-.442.735-.883l-7.941-14.558h3.75l5.808 10.808 4.78-10.808h3.382l-6.691 14.705a8.633 8.633 0 01-1.103 1.985 5.86 5.86 0 01-1.103 1.25 3.732 3.732 0 01-1.176.662c-.441.147-.883.22-1.324.22-.367 0-.809-.073-1.176-.147a6.785 6.785 0 01-.956-.294v-3.455c.221.22.588.44.882.514.441.147.809.22 1.177.22zm29.19.882c-.295.294-.589.588-.956.809-.441.294-.956.515-1.471.735-.588.22-1.25.441-1.838.515-.735.147-1.47.22-2.206.22a12.6 12.6 0 01-4.044-.661c-1.176-.441-2.205-1.03-3.088-1.912-.882-.809-1.544-1.838-1.985-3.014a11.335 11.335 0 01-.735-4.044c0-1.324.22-2.647.735-3.824.441-1.176 1.103-2.206 1.985-3.014.883-.883 1.985-1.544 3.162-1.985 1.323-.515 2.72-.736 4.117-.736 1.471 0 2.647.147 3.677.515 1.029.368 1.838.735 2.352 1.103v4.632c-.294-.441-.661-.809-1.029-1.176-.441-.368-.882-.736-1.397-1.03-.515-.294-1.103-.588-1.691-.735a5.762 5.762 0 00-1.912-.294c-.882 0-1.838.147-2.647.514-.735.295-1.47.736-2.058 1.324-.589.588-1.03 1.25-1.25 2.059a8.33 8.33 0 00-.441 2.647c0 .882.147 1.69.367 2.5.515 1.544 1.691 2.867 3.162 3.455.882.368 1.838.515 2.72.515.736 0 1.471-.074 2.206-.294a5.666 5.666 0 001.838-.735c.515-.294 1.03-.662 1.471-1.03a6.355 6.355 0 001.029-1.323l-.073 4.264zm15.881-13.528h-6.911l-.074.882c-.147 2.28-.294 4.19-.514 5.808-.147 1.397-.442 2.72-.736 4.044-.294 1.103-.588 1.986-.882 2.647a5.89 5.89 0 01-1.103 1.544c-.367.294-.735.588-1.176.662-.441.073-.883.147-1.25.147-.588 0-1.103-.073-1.471-.294v-3.31a.8.8 0 00.368.074h.368c.22 0 .441-.074.661-.074a1.48 1.48 0 00.662-.514c.294-.368.441-.736.588-1.177.221-.662.441-1.323.515-2.059.147-.882.294-1.911.441-3.161.147-1.25.221-2.794.368-4.559l.147-3.823h13.161V25.63h-3.235V10.19h.073zm12.794 12.646c.294 0 .662-.074.956-.22.294-.148.514-.442.735-.883l-8.014-14.558h3.749l5.809 10.808 4.779-10.808h3.382l-6.691 14.705a8.63 8.63 0 01-1.102 1.985 5.887 5.887 0 01-1.103 1.25 3.736 3.736 0 01-1.177.662 4.16 4.16 0 01-1.323.22c-.368 0-.809-.073-1.177-.147a6.79 6.79 0 01-.955-.294v-3.455c.22.22.588.44.882.514.515.147.882.22 1.25.22zm27.057-12.646h-9.117v15.587h-3.235V7.175h12.352v3.014zm6.618 10.881l9.926-13.896H230v18.602h-3.235V11.66l-10 14.117h-3.455V7.175h3.235V21.07z" fill="#0FA3B0"/><path d="M27.289 6.882a12.909 12.909 0 011.764 3.088L15.377 20.41l-5.735-3.676V12.25l5.735 3.676L27.29 6.882zm61.375 3.248l4.147-3.058H78.966V25.38h13.845v-3.037h-9.886V17.65h8.42v-3.058h-8.42V10.13h5.739zm-20.15 4.085h-4.797V10.13h7.666l4.127-3.058H59.758V25.38h8.253c4.63 0 7.29-2.095 7.29-5.76-.022-3.477-2.41-5.404-6.787-5.404zm-.691 8.127h-4.127v-5.07h4.127c2.513 0 3.665.86 3.665 2.535.021 1.718-1.215 2.535-3.665 2.535zm36.194-15.27h-7.54V25.38h3.958v-5.195h3.582c4.818 0 7.792-2.534 7.792-6.577 0-4.021-2.974-6.535-7.792-6.535zm-.084 10.075h-3.498V10.13h3.498c2.535 0 3.917 1.257 3.917 3.52 0 2.261-1.382 3.497-3.917 3.497zM52.972 21.42a7.181 7.181 0 01-3.414.859c-3.56 0-6.137-2.535-6.137-6.053 0-3.498 2.576-6.054 6.137-6.054a6.03 6.03 0 013.603 1.131l2.827-2.094-.188-.168c-1.655-1.445-3.875-2.22-6.389-2.22-2.744 0-5.236.922-6.996 2.597-1.78 1.697-2.764 4.064-2.764 6.682 0 2.64.984 5.048 2.764 6.786 1.78 1.739 4.273 2.702 6.996 2.702 2.849 0 5.341-.984 7.017-2.806l-2.555-1.886-.9.524z" fill="#21A038"/><path d="M27.355 6.905a14.82 14.82 0 011.822 3.037L15.27 20.206 9.446 16.56v-4.399l5.823 3.645 12.086-8.902z" fill="#21A038"/><path d="M3.54 16.226c0-.189 0-.398.02-.587l-3.518-.167c-.021.25-.021.502-.021.754 0 4.21 1.717 8.043 4.482 10.808l2.493-2.493a11.628 11.628 0 01-3.456-8.315z" fill="url(#paint0_linear)"/><path d="M15.27 4.496c.188 0 .397 0 .586.02l.167-3.518A15.264 15.264 0 004.461 5.459l2.493 2.493a11.665 11.665 0 018.316-3.456z" fill="url(#paint1_linear)"/><path d="M15.27 27.977c-.189 0-.399 0-.587-.021l-.168 3.518c.252.021.503.021.755.021 4.21 0 8.043-1.717 10.808-4.482l-2.493-2.493a11.715 11.715 0 01-8.316 3.457z" fill="url(#paint2_linear)"/><path d="M21.888 6.528l2.975-2.2A15.203 15.203 0 0015.27.935v3.519a12.14 12.14 0 016.618 2.074z" fill="url(#paint3_linear)"/><path d="M30.54 16.225c0-.943-.085-1.843-.252-2.744l-3.289 2.43v.314c0 3.456-1.487 6.556-3.875 8.714l2.367 2.618c3.121-2.786 5.048-6.828 5.048-11.332z" fill="#21A038"/><path d="M15.27 27.976a11.693 11.693 0 01-8.714-3.875l-2.618 2.367a15.243 15.243 0 0011.332 5.027v-3.519z" fill="url(#paint4_linear)"/><path d="M7.394 7.533L5.027 4.915A15.243 15.243 0 000 16.247h3.519a11.81 11.81 0 013.875-8.714z" fill="url(#paint5_linear)"/><defs><linearGradient id="paint0_linear" x1="5.19" y1="26.589" x2="1.336" y2="15.446" gradientUnits="userSpaceOnUse"><stop offset=".144" stop-color="#F2E913"/><stop offset=".304" stop-color="#E7E518"/><stop offset=".582" stop-color="#CADB26"/><stop offset=".891" stop-color="#A3CD39"/></linearGradient><linearGradient id="paint1_linear" x1="5.483" y1="6.057" x2="15.412" y2="2.274" gradientUnits="userSpaceOnUse"><stop offset=".059" stop-color="#0FA8E0"/><stop offset=".538" stop-color="#0099F9"/><stop offset=".923" stop-color="#0291EB"/></linearGradient><linearGradient id="paint2_linear" x1="14.279" y1="29.375" x2="25.506" y2="26.838" gradientUnits="userSpaceOnUse"><stop offset=".123" stop-color="#A3CD39"/><stop offset=".285" stop-color="#86C339"/><stop offset=".869" stop-color="#21A038"/></linearGradient><linearGradient id="paint3_linear" x1="14.537" y1="2.143" x2="24.136" y2="5.104" gradientUnits="userSpaceOnUse"><stop offset=".057" stop-color="#0291EB"/><stop offset=".79" stop-color="#0C8ACB"/></linearGradient><linearGradient id="paint4_linear" x1="4.835" y1="26.049" x2="15.284" y2="29.953" gradientUnits="userSpaceOnUse"><stop offset=".132" stop-color="#F2E913"/><stop offset=".298" stop-color="#EBE716"/><stop offset=".531" stop-color="#D9E01F"/><stop offset=".802" stop-color="#BBD62D"/><stop offset=".983" stop-color="#A3CD39"/></linearGradient><linearGradient id="paint5_linear" x1="1.317" y1="16.66" x2="5.511" y2="5.749" gradientUnits="userSpaceOnUse"><stop offset=".07" stop-color="#A3CD39"/><stop offset=".26" stop-color="#81C55F"/><stop offset=".922" stop-color="#0FA8E0"/></linearGradient></defs></svg>