<svg width="285" height="48" fill="none" xmlns="http://www.w3.org/2000/svg"><path d="M42.107 9.728a19.912 19.912 0 012.723 4.765l-21.102 16.11-8.85-5.673v-6.92l8.85 5.672L42.106 9.728zm94.703 5.011l6.399-4.719h-21.363v28.248h21.363V33.58h-15.255v-7.24h12.993v-4.718h-12.993v-6.884h8.856zm-31.092 6.302h-7.401V14.74h11.829l6.367-4.719H92.208v28.248h12.734c7.143 0 11.248-3.232 11.248-8.888-.033-5.365-3.717-8.339-10.472-8.339zm-1.066 12.54h-6.367V25.76h6.367c3.878 0 5.656 1.325 5.656 3.91.032 2.65-1.875 3.911-5.656 3.911zM160.5 10.02h-11.635v28.248h6.109v-8.016h5.526c7.434 0 12.023-3.91 12.023-10.148 0-6.205-4.589-10.084-12.023-10.084zm-.129 15.546h-5.397V14.739h5.397c3.911 0 6.044 1.939 6.044 5.43 0 3.49-2.133 5.397-6.044 5.397zM81.737 32.16a11.081 11.081 0 01-5.268 1.325c-5.495 0-9.47-3.911-9.47-9.341 0-5.397 3.975-9.34 9.47-9.34a9.306 9.306 0 015.559 1.745l4.363-3.232-.29-.259c-2.554-2.23-5.98-3.426-9.858-3.426-4.234 0-8.08 1.423-10.795 4.008-2.747 2.618-4.266 6.27-4.266 10.31 0 4.072 1.518 7.79 4.266 10.472 2.747 2.682 6.593 4.169 10.795 4.169 4.395 0 8.241-1.519 10.827-4.33l-3.943-2.91-1.39.808z" fill="#fff"/><path d="M42.21 9.762a22.825 22.825 0 012.811 4.686l-21.46 15.837-8.985-5.624v-6.787l8.985 5.624L42.21 9.762zM5.462 24.144c0-.29 0-.614.032-.905l-5.43-.258c-.032.387-.032.775-.032 1.163 0 6.496 2.65 12.41 6.917 16.677l3.846-3.846c-3.33-3.297-5.333-7.821-5.333-12.83zM23.56 6.045c.292 0 .615 0 .906.033l.258-5.43a13.987 13.987 0 00-1.163-.032c-6.496 0-12.41 2.65-16.677 6.916l3.846 3.846a17.999 17.999 0 0112.83-5.333zm.001 36.231c-.29 0-.614 0-.905-.032l-.258 5.43a14.1 14.1 0 001.163.032c6.496 0 12.41-2.65 16.677-6.917l-3.846-3.846c-3.297 3.297-7.822 5.333-12.831 5.333z" fill="#fff"/><path d="M33.774 9.18l4.59-3.393A23.46 23.46 0 0023.56.55v5.43c3.782.064 7.304 1.228 10.213 3.2zm13.348 14.964c0-1.455-.129-2.845-.388-4.234l-5.074 3.749v.485c0 5.333-2.294 10.116-5.979 13.445l3.652 4.04c4.816-4.299 7.79-10.536 7.79-17.485zM23.561 42.276c-5.333 0-10.116-2.295-13.445-5.98l-4.04 3.653a23.52 23.52 0 0017.485 7.757v-5.43zM11.409 10.732l-3.652-4.04A23.52 23.52 0 000 24.177h5.43c.032-5.333 2.327-10.149 5.979-13.445zm181.9 28.056h-6.631V9.781h6.631V21.3h3.812l7.542-11.52h7.874l-9.697 13.592 11.644 15.415h-8.37l-8.62-11.81h-4.185v11.81zm31.484 0h-6.63V9.781h6.63v29.007zM241.46 9.78c2.928 0 5.456.318 7.583.954 2.155.608 3.923 1.505 5.304 2.693 1.409 1.16 2.445 2.611 3.108 4.352.663 1.712.995 3.688.995 5.925 0 2.57-.401 4.807-1.202 6.714-.801 1.878-1.934 3.439-3.398 4.682-1.436 1.243-3.177 2.169-5.221 2.777-2.045.607-4.31.911-6.796.911h-10.194V9.781h9.821zm.58 22.792c3.287 0 5.691-.76 7.21-2.279 1.52-1.52 2.28-3.55 2.28-6.091 0-1.354-.18-2.542-.539-3.564a5.758 5.758 0 00-1.658-2.57c-.746-.69-1.726-1.201-2.942-1.533-1.215-.359-2.693-.538-4.434-.538h-3.688v16.575h3.771zm41.51-12.432a12.244 12.244 0 00-1.658-1.74 11.75 11.75 0 00-2.196-1.492 11.448 11.448 0 00-2.611-1.036 11.788 11.788 0 00-3.025-.373c-1.961 0-3.329.221-4.103.663-.773.415-1.16.995-1.16 1.74 0 .609.235 1.092.705 1.451.469.36 1.077.65 1.823.87.774.222 1.644.415 2.611.58.967.166 1.947.374 2.942.622 1.022.221 2.017.525 2.984.912a8.696 8.696 0 012.569 1.575c.773.663 1.395 1.491 1.865 2.486.469.994.704 2.224.704 3.688a9.179 9.179 0 01-.663 3.44c-.414 1.105-1.105 2.085-2.072 2.942-.967.856-2.238 1.547-3.812 2.072-1.548.497-3.44.746-5.678.746-1.215 0-2.376-.097-3.481-.29a18.054 18.054 0 01-2.983-.788 14.42 14.42 0 01-2.362-1.119c-.663-.414-1.188-.842-1.575-1.284v-7.377c.939 1.41 2.293 2.542 4.061 3.398 1.768.83 3.854 1.244 6.257 1.244 2.1 0 3.564-.249 4.393-.746.829-.525 1.243-1.188 1.243-1.99 0-.662-.235-1.173-.704-1.533-.47-.386-1.078-.69-1.824-.911-.745-.221-1.602-.4-2.569-.539a42.655 42.655 0 01-2.983-.539 21.75 21.75 0 01-2.984-.87 8.04 8.04 0 01-2.569-1.533c-.746-.663-1.354-1.506-1.824-2.528-.469-1.05-.704-2.362-.704-3.937 0-2.707.967-4.82 2.901-6.34 1.961-1.547 4.959-2.32 8.992-2.32 2.155 0 4.02.234 5.594.704 1.603.47 2.901.995 3.896 1.575v8.578z" fill="#fff"/></svg>