<svg width="73" height="21" fill="none" xmlns="http://www.w3.org/2000/svg"><path d="M57.605 6.863l2.728-1.996h-9.131v11.989h9.131v-1.997h-6.525V11.79h5.566V9.794h-5.566v-2.93h3.797z" fill="#fff"/><path fill-rule="evenodd" clip-rule="evenodd" d="M41.235 9.54h3.079c2.796 0 4.336 1.26 4.336 3.55 0 2.393-1.7 3.766-4.662 3.766h-5.282V4.866h10.093L46.15 6.864h-4.915V9.54zm0 5.32h2.639c1.561 0 2.353-.533 2.353-1.663 0-1.105-.747-1.66-2.353-1.66h-2.639v3.322zm21.021-9.993h4.96c3.167 0 5.133 1.644 5.133 4.29 0 2.647-1.967 4.303-5.132 4.303h-2.36v3.396h-2.601V4.866zm2.6 6.597h2.305c1.666 0 2.584-.817 2.584-2.3 0-1.484-.918-2.3-2.584-2.3h-2.305v4.6z" fill="#fff"/><path d="M34.52 14.065a4.636 4.636 0 01-2.247.567c-2.347 0-4.05-1.687-4.05-4.01 0-2.325 1.703-4.012 4.05-4.012.888 0 1.685.251 2.369.746l1.867-1.385-.123-.11c-1.09-.964-2.548-1.474-4.213-1.474-1.807 0-3.448.614-4.618 1.728-1.178 1.12-1.826 2.697-1.826 4.44 0 1.75.646 3.35 1.82 4.504 1.176 1.159 2.813 1.797 4.607 1.797 1.877 0 3.516-.66 4.627-1.858l-1.685-1.25-.577.317z" fill="#fff"/><path fill-rule="evenodd" clip-rule="evenodd" d="M19.803 8.62c.104.572.158 1.16.158 1.762 0 5.43-4.41 9.83-9.852 9.83s-9.853-4.4-9.853-9.83S4.666.55 10.109.55c2.344 0 4.496.818 6.187 2.181l-1.916 1.41a7.543 7.543 0 00-4.271-1.32c-4.178 0-7.577 3.391-7.577 7.56 0 4.168 3.4 7.56 7.577 7.56s7.576-3.392 7.576-7.56c0-.068 0-.135-.002-.202l2.12-1.56zM6.358 7.76l3.75 2.345 7.797-5.733c.466.6.864 1.255 1.181 1.954l-8.977 6.601-3.75-2.346V7.76z" fill="#fff"/></svg>