<svg width="68" height="26" fill="none" xmlns="http://www.w3.org/2000/svg"><mask id="a" style="mask-type:alpha" maskUnits="userSpaceOnUse" x="0" y="5" width="19" height="20"><path fill-rule="evenodd" clip-rule="evenodd" d="M0 5.691h18.81v18.847H0V5.691z" fill="#fff"/></mask><g mask="url(#a)"><path fill-rule="evenodd" clip-rule="evenodd" d="M9.405 20.38a5.2 5.2 0 01-5.2-5.21 5.2 5.2 0 1110.4 0c.055 2.827-2.323 5.21-5.2 5.21zm0-14.689C4.205 5.691 0 9.904 0 15.115c0 5.21 4.204 9.423 9.405 9.423 5.2 0 9.405-4.213 9.405-9.423 0-5.211-4.205-9.424-9.405-9.424z" fill="#fff"/></g><mask id="b" style="mask-type:alpha" maskUnits="userSpaceOnUse" x="1" y="0" width="17" height="5"><path fill-rule="evenodd" clip-rule="evenodd" d="M1.68.594h15.34v3.844H1.68V.594z" fill="#fff"/></mask><g mask="url(#b)"><path fill-rule="evenodd" clip-rule="evenodd" d="M3.816 4.438c-1.15 0-2.137-.865-2.137-1.922S2.61.594 3.816.594c1.205 0 2.137.865 2.137 1.922s-.987 1.922-2.137 1.922zM17.02 2.516c0 1.057-.932 1.922-2.137 1.922-1.15 0-2.137-.865-2.137-1.922S13.678.594 14.883.594s2.137.865 2.137 1.922zm-5.534 0c0 1.057-.931 1.922-2.137 1.922-1.15 0-2.136-.865-2.136-1.922S8.144.594 9.349.594c1.151 0 2.137.865 2.137 1.922z" fill="#fff"/></g><path fill-rule="evenodd" clip-rule="evenodd" d="M58.343 20.828c-2.953 0-5.338-2.408-5.338-5.389 0-2.981 2.385-5.389 5.338-5.389 2.953 0 5.338 2.408 5.338 5.39.057 2.923-2.385 5.388-5.338 5.388zm0-15.192c-5.338 0-9.654 4.357-9.654 9.746s4.316 9.746 9.654 9.746 9.654-4.357 9.654-9.746c0-5.39-4.316-9.746-9.654-9.746zM27.541 16.081l6.877 8.2H29.3l-4.085-4.616-1.034 1.629v2.986h-4.033V.552h4.033V13.8l.57-.977 4.653-7.005h4.602L27.54 16.081z" fill="#fff"/><path fill-rule="evenodd" clip-rule="evenodd" d="M43.49 16.081l6.878 8.2h-5.12l-4.084-4.616-1.034 1.629v2.986h-4.033V.552h4.033V13.8l.57-.977 4.653-7.005h4.601l-6.463 10.263z" fill="#fff"/></svg>