<svg width="123" height="123" viewBox="0 0 123 123" fill="none" xmlns="http://www.w3.org/2000/svg">
<g clip-path="url(#clip0)">
<path d="M23.0357 60.33L21.3442 59.4713L21.0614 61.6498L18.589 60.4021L18.8718 58.2237L15.4784 56.5344L15.8263 53.8371L19.2108 55.5071L19.504 53.3006L16.1106 51.6113L16.4584 48.914L19.8518 50.6033L20.0743 48.8016L22.5467 50.0493L22.3242 51.851L24.0157 52.7097L24.2848 50.6538L26.766 51.9208L26.5073 53.9486L30.0023 55.708L29.6544 58.4052L26.1595 56.6459L25.8663 58.8524L29.3613 60.6118L29.0134 63.309L25.5185 61.5497L25.2631 63.4828L22.7907 62.2351L23.0357 60.33ZM23.3747 57.6135L23.6679 55.4069L21.9764 54.5483L21.6832 56.7548L23.3747 57.6135Z" fill="#29CFBB"/>
<path d="M35.4709 38.7968C35.8425 39.815 35.6519 41.7885 34.4753 43.8391C32.1357 47.8176 28.275 49.276 24.3081 46.9401C20.6005 44.7653 19.7237 40.5539 22.0754 36.5C23.1303 34.6913 24.3777 33.6098 25.3415 33.077L28.8916 35.1606C27.4581 35.3254 25.717 36.1896 24.6517 38.0264C23.2853 40.3732 23.8964 42.6795 26.0839 43.964C28.0769 45.1276 30.4332 44.798 31.9374 42.2952C33.0932 40.3007 33.1581 38.4079 32.4305 37.0164L35.4709 38.7968Z" fill="#29CFBB"/>
<path d="M29.2441 27.6401L37.3975 21.4985L39.1874 23.896L33.5768 28.1323L34.6525 29.5747L36.8078 27.9394C39.7972 25.6906 42.179 25.722 43.969 28.1194C45.8045 30.5659 44.8484 33.3544 42.2184 35.3227L37.6269 38.7914L29.2441 27.6401ZM36.4529 31.9441L38.3797 34.4887L40.4669 32.9077C41.5245 32.1225 42.2284 31.1725 41.4054 30.0807C40.6456 29.0765 39.7146 29.4779 38.617 30.328L36.4529 31.9441Z" fill="#29CFBB"/>
<path d="M55.2324 23.6566L49.5902 25.229L50.3052 27.8141L56.8543 25.991L57.6541 28.8634L48.0313 31.5297L44.2938 18.0963L53.7068 15.4791L54.5066 18.3515L48.1584 20.1063L48.7728 22.318L54.415 20.7456L55.2324 23.6566Z" fill="#29CFBB"/>
<path d="M62.8378 25.2177L62.4302 29.1067L59.2747 28.7529L60.7331 14.9055L65.4348 15.3925C70.2957 15.9232 71.8274 17.8562 71.5033 20.9618C71.14 24.3882 68.7079 25.8237 64.384 25.3508L62.8378 25.2177ZM63.5799 18.195L63.1482 22.2347L65.0793 22.4484C67.0768 22.6551 68.0702 22.0855 68.2238 20.6413C68.3725 19.3391 67.6309 18.6294 65.6614 18.4332L63.5799 18.195Z" fill="#29CFBB"/>
<path d="M87.5765 28.7213L80.9651 32.0867L79.4849 31.1316L79.6365 23.6796L74.5203 31.6963L71.8368 29.9859L79.3214 18.2571L82.7721 20.4791L82.4587 28.2379L89.332 24.6832L92.5883 26.7844L85.1037 38.5132L82.4202 36.8028L87.5765 28.7213Z" fill="#29CFBB"/>
<path d="M95.5503 45.1829L92.4786 40.1795L90.1899 41.5729L93.7533 47.4001L91.2132 48.9548L85.9743 40.4218L97.8161 33.1565L102.929 41.5143L100.388 43.069L96.9321 37.4259L94.9908 38.6143L98.0624 43.6177L95.5503 45.1829Z" fill="#29CFBB"/>
<path d="M104.367 57.7432L103.032 51.4585L92.3362 53.706L91.6774 50.5829L105.278 47.7324L107.272 57.1402L104.367 57.7432Z" fill="#29CFBB"/>
<path d="M106.615 68.5723L92.1376 72.4517L92.545 69.1218L95.5017 68.3785L96.2064 62.4442L93.5236 60.9897L93.9157 57.8297L107.057 65.0636L106.615 68.5723ZM99.0188 63.9793L98.5825 67.6019L103.428 66.3695L99.0188 63.9793Z" fill="#29CFBB"/>
<path d="M92.8541 88.7772L89.6904 82.0457L90.6955 80.5857L98.1231 80.9936L90.2713 75.5856L92.0725 72.9706L103.545 80.8723L101.236 84.255L93.5016 83.6841L96.8356 90.6873L94.646 93.8754L83.1732 85.9737L84.9743 83.3587L92.8541 88.7772Z" fill="#29CFBB"/>
<path d="M81.2068 102.778L69.7292 93.0848L72.7047 91.5178L74.9903 93.5261L80.2673 90.7462L79.927 87.7107L82.7297 86.2226L84.308 101.13L81.2068 102.778ZM80.6028 93.9236L77.3863 95.6238L81.1686 98.929L80.6028 93.9236Z" fill="#29CFBB"/>
<path d="M66.1531 96.9986L65.8421 93.1113L69.0082 92.878L70.1117 106.744L65.4 107.101C60.5363 107.479 58.6627 105.865 58.4113 102.72C58.1416 99.2792 60.2666 97.4248 64.5989 97.1021L66.1531 96.9986ZM66.7068 104.012L66.3918 99.9639L64.439 100.11C62.4389 100.253 61.5526 101.007 61.6823 102.462C61.789 103.764 62.6298 104.335 64.6019 104.181L66.7068 104.012Z" fill="#29CFBB"/>
<path d="M53.411 92.4706L56.4197 93.5202L51.9116 106.686L48.9029 105.636L50.6901 100.396L48.9521 99.7915L43.7449 103.844L40.1656 102.612L46.6793 97.9637L43.7951 89.1483L47.5984 90.4643L49.6656 97.1836L51.5629 97.8319L53.411 92.4706Z" fill="#29CFBB"/>
<path d="M33.0256 86.6551L37.4215 90.542L39.1928 88.5229L34.0817 83.984L36.0587 81.7546L43.5466 88.4L34.3571 98.8338L27.0341 92.3461L29.0111 90.1167L33.9574 94.4979L35.4725 92.782L31.0765 88.895L33.0256 86.6551Z" fill="#29CFBB"/>
<path d="M20.4912 76.0702L22.5421 79.9555L32.1916 74.8549L33.6837 77.6677L24.0342 82.7684L25.9956 86.5083L23.3571 87.8983L17.8526 77.4601L20.4912 76.0702Z" fill="#29CFBB"/>
</g>
<defs>
<clipPath id="clip0">
<rect width="92.3425" height="92.3425" fill="white" transform="translate(38.3259 122.339) rotate(-114.522)"/>
</clipPath>
</defs>
</svg>
