<svg xmlns="http://www.w3.org/2000/svg" width="919" height="763"><defs><linearGradient id="a" x1="0" y1="100%" x2="35%" y2="0"><stop offset="20%" stop-color="#ff8f5a"/><stop offset="100%" stop-color="#ff2f96"/></linearGradient></defs><path fill="url(#a)" d="M560.2.4c79.6 2.1 152.3 29.4 207.9 79.3 34 27.1 65.1 64.4 91.1 108.2 20.9 33.5 36.2 65.2 47.4 105.6 11.9 44.8 10.3 54 11.8 82.3 1.8 31.7-1.7 64-9.7 92.2-16.5 57.1-43.7 103-77.1 142.2-29.9 36.2-66.1 64.5-106.5 87.1-32.8 19.1-65.4 32.6-98.3 41.1-34.2 9.8-68.9 14.6-105.6 19.4-30.2 3.1-60.8 4.2-91.6 4.2-31.5.5-65.5-1.5-97.5-4.1-64.3-4.6-132.8-16.8-198.9-43.6-47.5-20.2-76.8-38.3-104.3-70.7C11.1 617.2 3.2 596.8.8 571.8c-.9-11.8-1-14.3-.4-24 2.1-26.2 5.4-47.2 18.6-81.3 25.1-62.9 62.7-119.3 103-176.3 30.1-41.4 65.4-83.8 98.8-118.7 30.3-29.9 59.7-60.3 96.8-86.5 38.4-26.5 77-48 119-62.8 26.5-9.1 53.4-16.3 83-19.4C537 1.2 545.9 1.1 559.8.5z"/></svg>