<svg width="196" height="57" fill="none" xmlns="http://www.w3.org/2000/svg"><g clip-path="url(#clip0)" fill="#41ACE2"><path d="M39.297 39.567c1.157.004 2.101.377 2.83 1.121.727.744 1.088 1.705 1.084 2.885l-.023 9.035c-.004 1.136-.371 1.995-1.103 2.585-.731.587-1.676.88-2.833.877-1.116-.004-2.05-.3-2.799-.891-.748-.59-1.123-1.453-1.12-2.588l.014-5.04-30.961-.08c-1.157-.004-2.133-.409-2.926-1.22-.793-.81-1.185-1.78-1.185-2.915L.382 3.262c.007-2.18 1.34-3.269 4-3.262 2.446.007 3.754 1.1 3.919 3.283l-.093 36.2 19.375.053.093-36.2c.003-1.09.367-1.908 1.099-2.452.731-.545 1.696-.814 2.898-.81 1.116.003 2.026.29 2.734.859.707.569 1.057 1.376 1.057 2.423l-.093 36.2 3.926.011zm39.098-35.38c3.383 2.889 5.069 6.909 5.055 12.06-.01 4.366-1.363 8.103-4.052 11.218-2.689 3.116-6.222 4.666-10.6 4.652l-9.977-.024-.03 12.374c-.004 1.048-.372 1.886-1.103 2.518-.732.629-1.676.947-2.833.943-1.116-.003-2.05-.3-2.799-.89-.749-.59-1.123-1.411-1.12-2.46l.1-39.933c.004-1.135.392-2.096 1.168-2.878.772-.782 1.74-1.215 2.898-1.303L68.876.5c3.52.007 6.693 1.237 9.52 3.688zm-2.733 12.04c.003-1.876-.646-3.636-1.95-5.274-1.306-1.642-2.923-2.463-4.853-2.466l-9.976-.025-.041 15.647 9.976.024c1.758.004 3.338-.852 4.739-2.574 1.397-1.725 2.101-3.503 2.105-5.333zM133.763.339c1.243.003 2.283.377 3.118 1.121.834.744 1.25 1.683 1.246 2.819l-.103 40.325c-.003 1.09-.381 1.952-1.133 2.584-.752.629-1.707.947-2.867.943-1.116-.003-2.037-.31-2.765-.922-.728-.611-1.112-1.463-1.154-2.556l.066-26.383-11.886 18.751c-.216.437-.656.926-1.322 1.47-.666.545-1.449.814-2.352.814-1.374-.003-2.531-.726-3.472-2.169l-11.861-18.95-.065 26.446c-.045 1.047-.447 1.875-1.199 2.483-.752.607-1.665.911-2.737.908-1.075-.004-1.995-.332-2.764-.989-.77-.656-1.154-1.487-1.15-2.49l.102-40.258c.004-1.09.36-2.04 1.068-2.847.711-.807 1.645-1.208 2.802-1.205 1.501.004 2.724.772 3.665 2.302l15.638 25.9L130.73 2.358c.691-1.22 1.7-1.893 3.033-2.02zm57.157.15c1.243.003 2.283.377 3.118 1.12.834.745 1.25 1.684 1.246 2.82l-.103 40.325c-.003 1.093-.381 1.952-1.133 2.584-.752.629-1.707.947-2.867.943-1.117-.003-2.037-.31-2.765-.922-.728-.611-1.113-1.464-1.154-2.557l.065-26.382-11.892 18.758c-.216.437-.656.926-1.322 1.47-.666.545-1.449.814-2.352.814-1.374-.003-2.531-.726-3.472-2.169l-11.851-18.957-.065 26.445c-.045 1.048-.447 1.876-1.199 2.484-.752.607-1.665.911-2.737.908-1.075-.004-1.995-.332-2.764-.989-.769-.656-1.154-1.487-1.151-2.49l.104-40.259c.003-1.09.357-2.04 1.067-2.846.711-.807 1.645-1.208 2.803-1.205 1.5.004 2.723.772 3.664 2.302l15.639 25.897 16.088-26.075c.69-1.22 1.7-1.893 3.033-2.02z"/></g><defs><clipPath id="clip0"><path fill="#fff" transform="translate(.283)" d="M0 0h195v56.063H0z"/></clipPath></defs></svg>