<svg width="165" height="97" fill="none" xmlns="http://www.w3.org/2000/svg"><g clip-path="url(#clip0)"><path d="M16.777 96.998c-.01-1.556-.024-3.047-.026-4.54-.018-8.9-.024-17.801-.065-26.704-.004-.719.36-.711.846-.711 3.827-.006 7.656-.013 11.483-.024 5.679-.019 11.356-.05 17.035-.057.748-.002 1.496.11 2.245.17.412 6.013-4.594 15.384-15.696 15.895-.24 5.907-2.666 10.621-7.793 13.75a14.706 14.706 0 01-8.03 2.221zm84.1-16.203l-.053-15.929 31.715-.126.027 15.995-31.689.06z" fill="#6220B3"/><path d="M17.061.05c1.64-.151 3.121.16 4.568.602C28.347 2.7 32.94 8.938 32.934 16.006c.026 4.959.05 9.917.072 14.876.002.301-.044.603-.079 1.044-5.208.01-10.389.022-15.734.031L17.06.049z" fill="#7FDD36"/><path d="M83.067 63.543c-.005-2.097-.018-4.11-.016-6.122.005-3.7-.18-7.412.07-11.095.538-7.945 6.593-13.975 14.478-14.696.383-.035.77-.005 1.23-.007l.044 31.93c-5.278-.004-10.508-.008-15.806-.01z" fill="#6220B3"/><path d="M50.059.002l.09 31.845c-.943.017-1.837.04-2.733.046-4.073.022-8.144.035-12.218.066-.62.006-.896-.136-.892-.875.02-4.99.024-9.98-.046-14.97-.124-8.73 7.17-16.256 15.8-16.111z" fill="#7FDD36"/><path d="M49.544 63.639c.239-5.985 2.67-10.664 7.705-13.65 5.724-3.397 11.591-3.23 17.115.507 4.499 3.042 6.714 7.48 6.906 13.075l-31.726.068zm51.232-16.086c4.21.066 7.78 1.438 10.78 4.244 2.995 2.803 4.619 6.313 5.135 10.404.259-2.253.842-4.38 1.935-6.33 2.708-4.831 6.777-7.658 12.279-8.321.302-.037.608-.015.911-.037.5-.035.701.169.699.693-.011 4.898-.004 9.796-.004 14.695 0 .122-.018.243-.043.572l-31.633.035c-.018-5.332-.039-10.555-.059-15.955zM48.345 63.654c-10.537.018-21.027.034-31.659.053.154-5.235 2.105-9.469 6.128-12.555 5.27-4.041 11.03-4.534 16.97-1.626 5.218 2.552 8.718 8.397 8.56 14.127z" fill="#6220B3"/><path d="M15.81 47.686a13.83 13.83 0 01-5.196-.842C4.17 44.576-.056 38.322.037 31.428.102 26.623.017 21.815 0 17.009c-.002-.27.011-.538.017-.863 1.75-.092 3.38.239 4.963.775 6.544 2.215 10.813 8.153 10.878 15.194.046 4.927.011 9.857.01 14.786.002.237-.033.476-.059.785z" fill="#7FDD36"/><path d="M65.527 64.925c5.265-.005 10.422-.013 15.705-.018.019 1.165.042 2.282.05 3.4.027 3.915.043 7.827.076 11.742.004.53-.073.857-.733.853-4.767-.028-9.534-.024-14.302-.026-.495 0-.87-.018-.869-.713.01-4.648-.018-9.296-.025-13.944 0-.39.058-.78.098-1.294zm17.54-.01c3.148-.012 6.149-.015 9.149-.037a384.01 384.01 0 005.828-.085c.573-.013.91.098.906.789-.026 4.8-.024 9.6-.035 14.4 0 .238-.035.477-.06.786-1.566.017-3.075.04-4.585.048-3.49.014-6.982.002-10.473.046-.653.009-.775-.267-.772-.807.022-3.363.037-6.725.048-10.088.005-1.645-.004-3.294-.006-5.052zm51.257 15.555l-.01-15.846c5.3-.024 10.485-.046 15.835-.068.024 3.857-1.199 7.206-3.56 10.154-3.296 4.113-8.446 5.962-12.265 5.76zm.1-17.094c-1.126-7.49 8.259-16.971 15.659-15.767.026 1.507.068 3.028.073 4.55.013 3.516-.004 7.034.026 10.55.005.595-.148.806-.76.803-4.584-.03-9.168-.026-13.754-.043-.42 0-.836-.06-1.244-.093z" fill="#6220B3"/><path d="M67.067 16c.01 5.277.018 10.498.026 15.83l-15.67.046c-.566-8.27 7.02-16.142 15.644-15.876z" fill="#7FDD36"/><path d="M158.22 32.505c4.055.327 7.081 3.902 6.756 7.988l-.007.077c-.367 4.166-4.012 7.283-8.063 6.895-4.168-.398-7.146-4.15-6.748-8.498.346-3.803 4.095-6.806 8.062-6.462zM56.333 80.806c-4.135-.318-7.09-3.773-6.78-7.93.325-4.08 3.848-7.14 7.902-6.867 4.053.302 7.156 3.902 6.833 7.93-.285 4.081-3.801 7.16-7.855 6.873a.937.937 0 01-.1-.006z" fill="#6220B3"/><path d="M41.219 39.498c.178-.417.375-.829.536-1.253.44-1.162.94-1.252 1.796-.307a.544.544 0 00.17-.039c.823-.458 1.7-.87 2.544-.177.835.686.653 1.636.368 2.546-.356 1.136-.668 2.29-1.104 3.396-.113.287-.61.421-.93.625-.214-.354-.652-.75-.596-1.055.16-.86.528-1.68.8-2.521.182-.566.337-1.142.524-1.78-1.508.249-2.891 1.673-3.247 3.22-.097.418-.166.84-.24 1.261-.074.443-.198.984-.74.774-.358-.138-.827-.676-.801-.998.075-.9.376-1.782.602-2.668.091-.353.22-.697.332-1.046l-.014.022zm15.216.288c-.292-.397-.524-.71-.755-1.027.334-.186.68-.355.998-.566.199-.132.45-.301.51-.504.156-.553.161-1.154.348-1.692.118-.342.452-.607.691-.906.263.32.712.619.747.963.056.547-.16 1.124-.289 1.84.6-.12 1.115-.218 1.626-.324.473-.1 1.062-.327 1.232.32.183.69-.458.82-.954.963-.466.134-.936.248-1.405.375-.946.255-1.727 1.889-1.24 2.734.103.177.707.282.88.151.526-.395.934-.94 1.425-1.386.22-.198.53-.295.798-.439.044.32.237.735.106.943-.493.777-.993 1.603-1.68 2.187-.656.56-1.554.443-2.319.006-.722-.412-.892-1.121-.854-1.893.031-.61.093-1.217.135-1.745zm-35.176 3.325c.607-2.523 1.17-4.835 1.72-7.147.092-.384.1-.794.229-1.164.09-.255.31-.632.496-.647.318 0 .617.145.816.394.184.305.255.667.2 1.02-.534 2.843-1.1 5.679-1.697 8.51a1.171 1.171 0 01-.635.74c-.15.057-.55-.29-.691-.54a6.69 6.69 0 01-.438-1.166z" fill="#000"/><path d="M41.236 39.472c-.413.511-.8.72-1.451.24-.24-.177-.91-.006-1.228.223-1.09.785-1.145 2.08-1.391 3.263-.01.06-.013.121-.013.182-.02.52.042 1.117-.733 1.097-.49-.013-.959-.809-.845-1.417.206-1.108.44-2.213.653-3.321.04-.364.099-.724.175-1.08a9.13 9.13 0 01.473-1.069c.343.195.686.388 1.115.63 1.744-.97 2.611-.663 3.226 1.278a.215.215 0 00.019-.026zm20.864.408c.855-1.861 1.638-3.633 2.503-5.364.115-.23.65-.248.99-.364.029.309.156.647.072.92-.541 1.741-1.098 3.48-1.74 5.185-.099.261-.674.486-1.011.462-.25-.019-.471-.465-.814-.838zm-9.563 3.22c.396-1.533.75-3.078 1.228-4.584.088-.277.696-.564 1.04-.54.523.037.543.504.419.99-.384 1.506-.721 3.022-1.084 4.531-.108.445-.178.96-.855.76-.573-.168-.883-.514-.748-1.157zm10.717-1.45c.133.224.504.59.555.995.087.696-.544 1.163-1.327 1.113-.588-.037-.987-.275-.93-.954.05-.643.72-1.209 1.702-1.154zm-8.204-4.46c-.36-.58-.794-1.004-.71-1.199.175-.402.626-.681.965-1.012.27.303.8.663.75.898-.084.405-.531.732-1.005 1.313zm-20.313.718c-.992-.141-2.035-.323-2.95.432-1.221 1.007-2.052 2.224-2.205 3.505-.64.222-1.126.329-1.55.551-.775.407-1.516.875-2.408.443-.028-.097-.053-.194-.08-.294.258-.084.52-.165.777-.257.739-.265 1.52-.45 2.2-.822.875-.476 1.121-1.328.798-2.19-.312-.833-1.007-1.261-1.95-1.15-1.733.201-2.477 1.677-3.351 2.864-.312.425-.104 1.338.044 1.987.271 1.191.916 1.656 2.144 1.728 1.42.083 2.588-.462 3.526-1.524 1.053 1.417 1.053 1.417 3.043.524a2.2 2.2 0 00.391.472c.228.16.533.388.746.337.218-.052.47-.38.526-.63.356-1.546.671-3.103.98-4.66.118-.606-.073-1.23-.68-1.316zm-6.76 1.629c.87.233-1.682.744-1.682.744s.814-.978 1.683-.744zm3.242 3.117c-.002-1.485.95-2.695 2.462-3.178-.358 1.454-1.252 2.367-2.462 3.178z" fill="#000"/></g><defs><clipPath id="clip0"><path fill="#fff" d="M0 0h165v97H0z"/></clipPath></defs></svg>