<svg width="217" height="37" fill="none" xmlns="http://www.w3.org/2000/svg"><g clip-path="url(#clip0)"><path d="M215.949 30.301H44.219V37h171.73v-6.7zM.283.584h28.272v6.969H8.316v6.653h18.588l-2.767 6.744H8.317v9.171H38.82v6.901H.283V.584z" fill="#FBBF19"/><path d="M38.82 21.017H28.622l2.767-6.72h7.43v6.72zm5.712 3.755V.45h5.088v24.322h-5.088zm28.339-8.295H57.854c.357 2.54 1.852 3.799 5.154 3.799 3.057 0 4.553-.854 5.021-2.09h4.932c-.514 4.068-3.794 6.585-9.975 6.585-6.449 0-10.108-3.259-10.108-9.575 0-6.182 3.749-9.576 10.108-9.576 2.656 0 4.775.674 6.382 1.775 3.637 2.473 3.972 6.474 3.66 9.082h-.157zm-14.816-3.394h9.93c-.424-1.417-1.34-2.968-4.977-2.968-2.811 0-4.35 1.057-4.953 2.968zm34.006-4.496V5.8h5.11v18.972h-5.11v-2.653h-.156c-1.272 1.641-3.414 2.653-6.962 2.653-7.9 0-8.792-6.924-8.792-9.486 0-2.765.848-9.486 8.792-9.486 3.481 0 5.6 1.101 6.895 2.787h.223zm-.312 6.699c0-2.563-.893-5.058-5.31-5.058-4.888 0-5.4 3.574-5.4 5.058 0 1.37.557 5.057 5.4 5.057 4.417 0 5.31-2.18 5.31-5.057zm23.363-8.992l-.804 4.855c-.468-.135-1.762-.427-3.369-.427-3.793 0-4.909 2.967-4.909 5.552v8.497h-5.11V5.821h5.11V8.61h.312c1.049-1.82 2.209-2.787 5.445-2.787 1.361 0 2.454.27 3.325.472zm22.782 8.991v9.486h-5.065v-9.486c0-1.483.312-5.057-4.575-5.057-4.396 0-5.065 2.832-5.065 5.395v9.148h-5.11V5.821h5.11V8.61h.245c1.205-1.663 2.924-2.787 6.293-2.787 7.944 0 8.167 6.698 8.167 9.463zm3.682 9.487V5.935h5.088v18.837h-5.088z" fill="#585857"/><path d="M141.576 4.586V0h5.088v4.586h-5.088z" fill="#FBBF19"/><path d="M170.138 15.285v9.486h-5.065v-9.486c0-1.483.312-5.057-4.575-5.057-4.395 0-5.065 2.832-5.065 5.395v9.148h-5.11V5.821h5.11V8.61h.246c1.205-1.663 2.923-2.787 6.292-2.787 7.944 0 8.167 6.698 8.167 9.463zm24.099-9.261v16.927c0 3.889-.714 10.947-10.086 10.947-8.457 0-10.063-4.608-10.063-7.418h5.065c.112 1.012 1.004 2.99 4.998 2.99 3.437 0 4.999-2.27 4.999-5.732v-1.394h-.223c-1.272 1.64-3.414 2.652-6.962 2.652-7.9 0-8.792-6.923-8.792-9.486 0-2.764.848-9.486 8.792-9.486 3.481 0 5.6 1.102 6.895 2.788h.29V6.024h5.087zm-5.511 9.486c0-2.562-.893-5.057-5.311-5.057-4.887 0-5.4 3.596-5.4 5.057 0 1.372.558 5.058 5.4 5.058 4.418 0 5.311-2.203 5.311-5.058zm27.558 3.642c0 4.698-3.348 5.62-9.127 5.62-4.262 0-7.185-.787-8.68-2.316-1.294-1.326-1.294-2.922-1.272-3.889v-.36h5.244v.158c0 1.619 1.205 2.338 4.597 2.338 2.052 0 3.994-.27 3.994-1.484 0-1.416-1.83-1.686-3.838-1.933-.268-.022-.536-.067-.804-.09-5.4-.72-8.769-1.933-8.769-5.71 0-2.652 1.517-5.799 8.747-5.799 7.788 0 9.439 3.484 9.439 6.384v.157h-5.199v-.157c0-1.484-1.25-2.293-4.24-2.293-2.856 0-3.436 1.034-3.436 1.619 0 .831.58 1.303 3.86 1.798l.424.067c4.217.652 9.06 1.394 9.06 5.89z" fill="#585857"/></g><defs><clipPath id="clip0"><path fill="#fff" transform="translate(.283)" d="M0 0h216v37H0z"/></clipPath></defs></svg>