<svg width="80" height="80" fill="none" xmlns="http://www.w3.org/2000/svg"><g opacity=".7" filter="url(#filter0_d)"><path fill-rule="evenodd" clip-rule="evenodd" d="M39.518 67.062c17.406 0 31.517-14.117 31.517-31.531C71.035 18.117 56.925 4 39.518 4S8 18.117 8 35.53c0 17.415 14.11 31.532 31.518 31.532z" fill="#0B0D17"/></g><path fill-rule="evenodd" clip-rule="evenodd" d="M35.558 26.228a.459.459 0 00-.481-.04.467.467 0 00-.253.417v20.534a.467.467 0 00.46.467c.097 0 .193-.03.274-.09l13.83-10.267a.47.47 0 000-.754l-13.83-10.267z" fill="#fff"/><defs><filter id="filter0_d" x="0" y="0" width="79.035" height="79.062" filterUnits="userSpaceOnUse" color-interpolation-filters="sRGB"><feFlood flood-opacity="0" result="BackgroundImageFix"/><feColorMatrix in="SourceAlpha" values="0 0 0 0 0 0 0 0 0 0 0 0 0 0 0 0 0 0 127 0"/><feOffset dy="4"/><feGaussianBlur stdDeviation="4"/><feColorMatrix values="0 0 0 0 0.133333 0 0 0 0 0.180392 0 0 0 0 0.309804 0 0 0 0.15 0"/><feBlend in2="BackgroundImageFix" result="effect1_dropShadow"/><feBlend in="SourceGraphic" in2="effect1_dropShadow" result="shape"/></filter></defs></svg>