<svg width="269" height="22" fill="none" xmlns="http://www.w3.org/2000/svg"><g clip-path="url(#clip0)"><path d="M15.468 15.85l2.534 2.74c-2.08 1.922-4.508 2.882-7.283 2.882-2.953 0-5.475-1.054-7.572-3.158C1.049 16.21 0 13.677 0 10.719c0-2.953 1.049-5.475 3.147-7.572C5.244 1.049 7.767 0 10.719 0c2.816 0 5.244.943 7.283 2.828l-2.564 2.77c-1.337-1.243-2.91-1.868-4.72-1.868-1.92 0-3.564.683-4.926 2.056-1.36 1.368-2.038 3.017-2.038 4.938 0 1.921.677 3.571 2.038 4.938 1.362 1.367 3 2.057 4.927 2.057 1.826-.006 3.411-.625 4.749-1.868zM27.677 3.147C29.775 1.049 32.303 0 35.255 0s5.48 1.049 7.59 3.147c2.109 2.097 3.158 4.62 3.158 7.572s-1.055 5.48-3.159 7.59c-2.109 2.109-4.637 3.157-7.59 3.157-2.951 0-5.473-1.054-7.571-3.158s-3.147-4.637-3.147-7.59c-.006-2.952 1.043-5.474 3.141-7.571zm2.652 12.515c1.36 1.367 2.999 2.057 4.926 2.057 1.92 0 3.57-.684 4.938-2.057 1.367-1.367 2.056-3.017 2.056-4.938 0-1.92-.683-3.57-2.056-4.938-1.367-1.367-3.017-2.056-4.938-2.056-1.921 0-3.565.683-4.926 2.056-1.361 1.368-2.04 3.017-2.04 4.938 0 1.921.679 3.565 2.04 4.938zM68.7.554h3.73v11.39c0 2.622-.93 4.867-2.798 6.73-1.862 1.867-4.119 2.798-6.759 2.798-2.64 0-4.897-.93-6.759-2.799-1.862-1.862-2.799-4.107-2.799-6.729V.554h3.76v11.39c0 1.591.566 2.952 1.703 4.078 1.137 1.125 2.498 1.691 4.095 1.691 1.615 0 2.988-.566 4.125-1.691 1.137-1.126 1.703-2.487 1.703-4.078V.554zm26.688 13.37l5.245 6.995h-4.431l-4.691-6.294h-6.146v6.294h-3.76V.554h10.696c1.962 0 3.641.69 5.038 2.068 1.396 1.38 2.097 3.04 2.097 4.985a6.725 6.725 0 01-1.107 3.76 7.15 7.15 0 01-2.94 2.557zm-3.205-2.91c.972 0 1.797-.33 2.475-.99a3.25 3.25 0 001.02-2.417c0-.948-.343-1.762-1.02-2.433-.678-.672-1.503-1.008-2.475-1.008h-6.818v6.847h6.818zm24.677-1.951c.873.27 1.58.506 2.11.7.536.195 1.173.484 1.921.861s1.332.766 1.75 1.167c.418.4.784.907 1.09 1.532.312.619.466 1.302.466 2.039 0 1.09-.236 2.033-.713 2.84a4.84 4.84 0 01-1.968 1.862c-.837.436-1.751.76-2.74.978a15.45 15.45 0 01-3.235.318c-2.953 0-5.728-.748-8.333-2.245l1.892-2.999c2.275 1.243 4.467 1.862 6.582 1.862 3.07 0 4.602-.807 4.602-2.416 0-.424-.124-.813-.365-1.149-.242-.342-.625-.642-1.149-.902a13.062 13.062 0 00-1.474-.642 47.077 47.077 0 00-1.909-.624.26.26 0 00-.1-.03.174.174 0 01-.088-.03.201.201 0 00-.1-.029 57.223 57.223 0 01-2.187-.701c-.506-.177-1.149-.454-1.938-.83-.79-.378-1.385-.767-1.792-1.168-.406-.394-.771-.919-1.09-1.561a4.797 4.797 0 01-.483-2.157c0-1.65.678-2.981 2.039-3.989 1.473-1.067 3.565-1.603 6.264-1.603 2.64 0 5.262.749 7.866 2.245l-1.821 2.911c-2.174-1.202-4.242-1.809-6.204-1.809-1.379 0-2.428.189-3.147.566-.719.377-1.078.89-1.078 1.532 0 .348.094.678.288.978.195.3.407.548.643.743.235.194.607.4 1.119.624.513.224.937.389 1.267.495.33.106.843.265 1.544.483.218.06.371.106.471.148z" fill="#B2B2B1"/><path d="M166.853.554c2.775 0 5.144.99 7.094 2.97 1.951 1.98 2.929 4.378 2.929 7.195 0 2.816-.978 5.22-2.94 7.212-1.963 1.992-4.32 2.988-7.077 2.988h-8.768V.554h8.762zm-.118 16.723c1.768 0 3.276-.642 4.531-1.921 1.255-1.285 1.88-2.828 1.88-4.631 0-1.81-.625-3.353-1.88-4.632-1.255-1.279-2.763-1.921-4.531-1.921h-4.897v13.11h4.897v-.005zm21.997 3.642h-3.76V.554h3.76v20.365zM196.863.554h18.008v3.494h-7.136v16.87h-3.73V4.049h-7.136V.554h-.006zm26.452 2.593C225.413 1.049 227.941 0 230.893 0s5.48 1.049 7.589 3.147c2.11 2.097 3.159 4.62 3.159 7.572s-1.055 5.48-3.159 7.59c-2.109 2.109-4.637 3.157-7.589 3.157-2.952 0-5.48-1.054-7.578-3.158s-3.147-4.637-3.147-7.59c0-2.952 1.049-5.474 3.147-7.571zm2.652 12.515c1.361 1.367 2.999 2.057 4.926 2.057 1.921 0 3.571-.684 4.938-2.057 1.367-1.367 2.056-3.017 2.056-4.938 0-1.92-.683-3.57-2.056-4.938-1.367-1.367-3.017-2.056-4.938-2.056-1.921 0-3.565.683-4.926 2.056-1.361 1.368-2.039 3.017-2.039 4.938 0 1.921.678 3.565 2.039 4.938zm37.293-1.738l5.245 6.995h-4.426l-4.69-6.294h-6.146v6.294h-3.759V.554h10.695c1.962 0 3.641.69 5.038 2.068 1.396 1.38 2.097 3.04 2.097 4.985a6.73 6.73 0 01-1.107 3.76 7.207 7.207 0 01-2.947 2.557zm-3.205-2.91c.972 0 1.797-.33 2.475-.99a3.252 3.252 0 001.019-2.417c0-.948-.342-1.762-1.019-2.433-.678-.672-1.503-1.008-2.475-1.008h-6.818v6.847h6.818zm-123.337 6.457h-3.842v3.447h3.842v-3.447zm14.142 0h-11.944v3.447h11.944v-3.447zm-14.142-8.455h-3.842v3.447h3.842V9.016zm14.142 0h-11.944v3.447h11.944V9.016zM136.719.555h-3.842v3.447h3.842V.555zM150.86.554h-11.944v3.447h11.944V.554z" fill="#3DA3D6"/><path d="M134.797 2.28v16.912" stroke="#3DA3D6" stroke-width="1.061" stroke-miterlimit="10"/><path d="M134.798 2.28h6.205m-6.205 8.456h6.204m-6.204 8.456h6.204" stroke="#3DA3D6" stroke-width="1.473" stroke-miterlimit="10"/></g><defs><clipPath id="clip0"><path fill="#fff" d="M0 0h268.505v21.472H0z"/></clipPath></defs></svg>