<svg width="40" height="22" fill="none" xmlns="http://www.w3.org/2000/svg"><path d="M15.468 15.85l2.534 2.74c-2.08 1.922-4.508 2.882-7.283 2.882-2.953 0-5.475-1.054-7.572-3.158C1.049 16.21 0 13.677 0 10.719c0-2.953 1.049-5.475 3.147-7.572C5.244 1.049 7.767 0 10.719 0c2.816 0 5.244.943 7.283 2.828l-2.564 2.77c-1.337-1.243-2.91-1.868-4.72-1.868-1.92 0-3.564.683-4.926 2.056-1.36 1.368-2.038 3.017-2.038 4.938 0 1.921.677 3.571 2.038 4.938 1.362 1.367 3 2.057 4.927 2.057 1.826-.006 3.411-.625 4.749-1.868z" fill="#B2B2B1"/><path d="M25.842 17.471H22v3.447h3.842v-3.447zm14.142 0H28.04v3.447h11.944v-3.447zM25.842 9.016H22v3.447h3.842V9.016zm14.142 0H28.04v3.447h11.944V9.016zM25.842.555h-3.841v3.447h3.841V.555zM39.984.554H28.04v3.447h11.944V.554z" fill="#3DA3D6"/><path d="M23.92 2.28v16.912" stroke="#3DA3D6" stroke-width="1.061" stroke-miterlimit="10"/><path d="M23.921 2.28h6.205m-6.206 8.456h6.206m-6.206 8.456h6.206" stroke="#3DA3D6" stroke-width="1.473" stroke-miterlimit="10"/></svg>